<svg class="animated" id="freepik_stories-horror-video-game" xmlns="http://www.w3.org/2000/svg" viewBox="0 0 750 500" version="1.1" xmlns:xlink="http://www.w3.org/1999/xlink" xmlns:svgjs="http://svgjs.com/svgjs"><style>svg#freepik_stories-horror-video-game:not(.animated) .animable {opacity: 0;}svg#freepik_stories-horror-video-game.animated #freepik--background-complete--inject-28 {animation: 1s 1 forwards cubic-bezier(.36,-0.01,.5,1.38) slideLeft;animation-delay: 0s;}svg#freepik_stories-horror-video-game.animated #freepik--Floor--inject-28 {animation: 1s 1 forwards cubic-bezier(.36,-0.01,.5,1.38) slideLeft;animation-delay: 0s;}svg#freepik_stories-horror-video-game.animated #freepik--Table--inject-28 {animation: 1s 1 forwards cubic-bezier(.36,-0.01,.5,1.38) fadeIn;animation-delay: 0s;}svg#freepik_stories-horror-video-game.animated #freepik--device-2--inject-28 {animation: 1s 1 forwards cubic-bezier(.36,-0.01,.5,1.38) slideRight;animation-delay: 0s;}svg#freepik_stories-horror-video-game.animated #freepik--device-1--inject-28 {animation: 1s 1 forwards cubic-bezier(.36,-0.01,.5,1.38) slideRight;animation-delay: 0s;}svg#freepik_stories-horror-video-game.animated #freepik--speech-bubble--inject-28 {animation: 1s 1 forwards cubic-bezier(.36,-0.01,.5,1.38) slideDown;animation-delay: 0s;}svg#freepik_stories-horror-video-game.animated #freepik--Character--inject-28 {animation: 1s 1 forwards cubic-bezier(.36,-0.01,.5,1.38) lightSpeedRight;animation-delay: 0s;}            @keyframes slideLeft {                0% {                    opacity: 0;                    transform: translateX(-30px);                }                100% {                    opacity: 1;                    transform: translateX(0);                }            }                    @keyframes fadeIn {                0% {                    opacity: 0;                }                100% {                    opacity: 1;                }            }                    @keyframes slideRight {                0% {                    opacity: 0;                    transform: translateX(30px);                }                100% {                    opacity: 1;                    transform: translateX(0);                }            }                    @keyframes slideDown {                0% {                    opacity: 0;                    transform: translateY(-30px);                }                100% {                    opacity: 1;                    transform: translateY(0);                }            }                    @keyframes lightSpeedRight {              from {                transform: translate3d(50%, 0, 0) skewX(-20deg);                opacity: 0;              }              60% {                transform: skewX(10deg);                opacity: 1;              }              80% {                transform: skewX(-2deg);              }              to {                opacity: 1;                transform: translate3d(0, 0, 0);              }            }        </style><g id="freepik--background-complete--inject-28" class="animable" style="transform-origin: 363.21px 240.49px;"><path d="M673.49,350.23c5.15-2.66,11.21-3,16.93-2.06,3.07.51,6.27,1.43,8.36,3.74s2.49,6.36.09,8.35c-1.43,1.18-3.42,1.36-5.28,1.33-4.47,0-9.44-.84-13,1.86-2,1.53-3.4,4.09-5.84,4.84s-5.08-.67-6.34-2.82a9.83,9.83,0,0,1-.72-7.27A11.11,11.11,0,0,1,673.49,350.23Z" style="fill: rgb(235, 235, 235); transform-origin: 683.908px 358.094px;" id="el0rk192p80k4" class="animable"></path><path d="M661.69,327.46c3.15,4.49,9.27,3,12.11.26s4-6.73,5.12-10.52c2.5-8.67,5-17.76,3.16-26.59a14.79,14.79,0,0,0-3.4-7.23,7.7,7.7,0,0,0-7.31-2.43c-3.09.81-5,3.83-6.39,6.71a63.27,63.27,0,0,0-6.26,27.2c0,4.38.5,9,3,12.6" style="fill: rgb(235, 235, 235); transform-origin: 670.717px 305.556px;" id="elvtf083avxdr" class="animable"></path><path d="M653,333.91c3.42-4.06,4.07-10,2.55-15.06s-5-9.41-8.92-12.94a48,48,0,0,0-16-9.42,17,17,0,0,0-7.19-1.22,7.53,7.53,0,0,0-6,3.64c-1.69,3.21-.07,7.1,1.67,10.27a121.5,121.5,0,0,0,10.49,16c3.14,4,6.75,8,11.54,9.88s9.77,1.62,12.31-1.71" style="fill: rgb(235, 235, 235); transform-origin: 636.526px 315.74px;" id="ellv7xedtnrs" class="animable"></path><path d="M661.48,395.3a11.11,11.11,0,0,0,.28-2.05c.15-1.48.33-3.35.54-5.57a81.11,81.11,0,0,1,1.26-8.18,62.42,62.42,0,0,1,3-9.66,35.56,35.56,0,0,1,4.93-8.74,18.48,18.48,0,0,1,6.23-5.18,17.31,17.31,0,0,1,5.25-1.63,9.87,9.87,0,0,0,2-.3,11,11,0,0,0-2.07,0,16,16,0,0,0-5.48,1.43,18.31,18.31,0,0,0-6.57,5.22,34.93,34.93,0,0,0-5.11,8.92,58.69,58.69,0,0,0-3,9.81,67.92,67.92,0,0,0-1.09,8.28c-.18,2.37-.25,4.29-.28,5.61A9.09,9.09,0,0,0,661.48,395.3Z" style="fill: rgb(224, 224, 224); transform-origin: 673.162px 374.621px;" id="elsna2sgl6i7" class="animable"></path><path d="M661.86,391a3.77,3.77,0,0,0,0-.95v-2.71c0-2.36,0-5.76.12-10,.21-8.41.93-17.46,2.33-30.22,1.32-12,3.1-26,5-35.05.4-2.06.81-3.92,1.19-5.55s.67-3,1-4.17.47-1.94.63-2.64a3.75,3.75,0,0,0,.17-.93,3.92,3.92,0,0,0-.33.89c-.21.68-.47,1.54-.79,2.6s-.7,2.52-1.11,4.14-.87,3.48-1.32,5.54a309.21,309.21,0,0,0-5.23,32.52c-1.4,12.79-2,24.43-2.09,32.86,0,4.22,0,7.63.15,10,.07,1.11.12,2,.16,2.71A4.06,4.06,0,0,0,661.86,391Z" style="fill: rgb(224, 224, 224); transform-origin: 666.865px 344.89px;" id="elgbgpjhl93le" class="animable"></path><path d="M661.92,368.55a21.12,21.12,0,0,0,0-2.83c-.11-1.82-.36-4.46-.87-7.68a99.26,99.26,0,0,0-2.5-11.18,90.7,90.7,0,0,0-4.67-13.23,70.59,70.59,0,0,0-13.73-21.38,35.38,35.38,0,0,0-3.23-3c-.5-.42-.94-.84-1.38-1.17l-1.26-.87a17.92,17.92,0,0,0-2.38-1.52c-.14.18,3.38,2.25,7.81,7A74.11,74.11,0,0,1,653.08,334a105.93,105.93,0,0,1,4.71,13.11c1.22,4.11,2,7.89,2.65,11.07s.92,5.8,1.13,7.6A18,18,0,0,0,661.92,368.55Z" style="fill: rgb(224, 224, 224); transform-origin: 646.932px 337.12px;" id="elowau5rlb6em" class="animable"></path><polygon points="640.21 408.16 642.46 438.99 682.07 438.99 684.32 408.16 640.21 408.16" style="fill: rgb(224, 224, 224); transform-origin: 662.265px 423.575px;" id="elhy2d49cj84m" class="animable"></polygon><rect x="636.38" y="396.01" width="52.66" height="12.15" style="fill: rgb(224, 224, 224); transform-origin: 662.71px 402.085px;" id="elakxjbmiur07" class="animable"></rect><polygon points="636.38 437.81 636.38 441.18 638.86 441.18 688.17 441.18 688.17 437.81 636.38 437.81" style="fill: rgb(235, 235, 235); transform-origin: 662.275px 439.495px;" id="elhqxdso7ugmt" class="animable"></polygon><polygon points="641.28 447.11 638.86 441.18 686.28 441.18 683.46 447.11 641.28 447.11" style="fill: rgb(224, 224, 224); transform-origin: 662.57px 444.145px;" id="elksu7j2mywkc" class="animable"></polygon><path d="M683.58,418.24s-.05.1-.18.28l-.6.79-2.3,2.95-.11.13-.09-.14-5.67-7.84H675l-5.58,7.91-.17.24-.2-.23-6.62-7.87h.38l-.36.46-5.92,7.42-.19.25-.19-.26-5.58-7.9h.32L644,422.27l-.12.14-.1-.16-2.15-3.62c-.23-.39-.41-.71-.55-1a2,2,0,0,1-.17-.34s.09.09.23.3l.61.93,2.26,3.55-.21,0,6.76-7.93.17-.2.16.22,5.63,7.86h-.38c1.88-2.36,3.86-4.85,5.9-7.43.13-.15.25-.31.37-.46l.19-.23.19.23,6.6,7.89H669l5.64-7.86.16-.23.16.23c2.24,3.19,4.13,5.9,5.55,7.93h-.2l2.4-2.88.64-.74Q683.57,418.23,683.58,418.24Z" style="fill: rgb(245, 245, 245); transform-origin: 662.245px 418.245px;" id="elyphierug3ef" class="animable"></path><path d="M684.87,408c0,.14-9.93.25-22.17.25s-22.16-.11-22.16-.25,9.92-.25,22.16-.25S684.87,407.82,684.87,408Z" style="fill: rgb(245, 245, 245); transform-origin: 662.705px 408px;" id="el6w9vtknj3u4" class="animable"></path><path d="M686.87,441.51c0,.14-10.79.25-24.09.25s-24.09-.11-24.09-.25,10.79-.24,24.09-.24S686.87,441.38,686.87,441.51Z" style="fill: rgb(245, 245, 245); transform-origin: 662.78px 441.515px;" id="eltr07j9ypojs" class="animable"></path><rect x="578.95" y="33.61" width="128.12" height="212.08" style="fill: rgb(224, 224, 224); transform-origin: 643.01px 139.65px;" id="elgkby6ytquf" class="animable"></rect><rect x="574.68" y="33.61" width="128.12" height="212.08" style="fill: rgb(235, 235, 235); transform-origin: 638.74px 139.65px;" id="el9secae66zu5" class="animable"></rect><rect x="580.14" y="37.91" width="117.21" height="203.48" style="fill: rgb(255, 255, 255); transform-origin: 638.745px 139.65px;" id="elt9cywgraic" class="animable"></rect><rect x="602.45" y="64.35" width="72.08" height="150.6" style="fill: rgb(235, 235, 235); transform-origin: 638.49px 139.65px;" id="elec29bxl0q55" class="animable"></rect><path d="M602.45,161.66c-.16-14.07,12.49-27.8,26.42-29.76,6.64-.94,13.7.38,19.91-2.17,11.08-4.54,14.6-19.26,25.75-23.63L675,215H602.45Z" style="fill: rgb(224, 224, 224); transform-origin: 638.724px 160.55px;" id="elj9bdor322x" class="animable"></path><path d="M60.84,294.88a54.36,54.36,0,0,0-23.28-8c-3.81-.39-8-.28-11,2a2.28,2.28,0,0,0-1.13,2,2.42,2.42,0,0,0,1.08,1.37c9.47,7.23,23.8,8.14,34.35,2.61" style="fill: rgb(224, 224, 224); transform-origin: 43.1449px 292.569px;" id="el5ax3tuy6jps" class="animable"></path><path d="M60.24,294.22C55,290.1,49.67,286,45.21,281s-8.1-10.89-9.43-17.44c-.41-2-.53-4.26.74-5.84,12,9.37,21.41,21.48,23.72,36.51" style="fill: rgb(224, 224, 224); transform-origin: 47.8688px 275.975px;" id="elecg2go65cji" class="animable"></path><path d="M60.72,294.79c-.91-6.56-1.23-13.3.28-19.75s5-12.61,10.51-16.29c2.07,4.84,1.18,10.42-.28,15.48a75.07,75.07,0,0,1-10.42,21.95" style="fill: rgb(224, 224, 224); transform-origin: 66.3406px 277.465px;" id="elpoznh4yugkh" class="animable"></path><path d="M72.47,315.84c-7.13.87-13.35,4.63-18.67,9.45a35.25,35.25,0,0,0-10.68,18.34c7-.44,12.93-5.37,17.23-10.9s7.29-11.61,12-16.78" style="fill: rgb(224, 224, 224); transform-origin: 57.795px 329.735px;" id="elr795m8ozmr" class="animable"></path><path d="M75,319.21a46,46,0,0,1,5.32-43.56c4.06,14.45,2.57,30.78-5.32,43.56" style="fill: rgb(224, 224, 224); transform-origin: 77.1495px 297.43px;" id="elmwdzsrcamsh" class="animable"></path><path d="M90.55,337.7A33.26,33.26,0,0,0,58.71,356c-.4.79-.75,1.79-.22,2.49a2.35,2.35,0,0,0,2.11.62c6.28-.4,11.84-4.18,16.43-8.48s8.59-9.26,13.66-13" style="fill: rgb(224, 224, 224); transform-origin: 74.4555px 348.394px;" id="ellf5mtgbwzes" class="animable"></path><path d="M90.05,336.69a59.26,59.26,0,0,1-.59-33.13c1.17-4.26,3.13-8.75,7.07-10.75a1.08,1.08,0,0,1,1.76.6,19.82,19.82,0,0,1,1.67,9.51,59.37,59.37,0,0,1-1.49,9.62c-1.24,5.88-1.9,12.2-5.13,17.27a35.45,35.45,0,0,0-2,3.79c-.61,1.29-.61,1.74-1.17,2.77" style="fill: rgb(224, 224, 224); transform-origin: 93.6973px 314.62px;" id="elqh23tg329mq" class="animable"></path><path d="M131.15,342.81c-3-11.58.19-25.62,7.49-35.12.53-.69,1.25-1.44,2.12-1.36,1.35.12,1.7,1.91,1.64,3.26a63.46,63.46,0,0,1-11.25,33.22" style="fill: rgb(224, 224, 224); transform-origin: 136.217px 324.567px;" id="elkr7dyczfd2c" class="animable"></path><path d="M134.86,345.35c14.07,3.66,30.21.1,41.92-8.53a34,34,0,0,0-22.7-2.78c-7.58,1.73-14.5,5.13-19.22,11.31" style="fill: rgb(224, 224, 224); transform-origin: 155.82px 339.995px;" id="elshbwj86t1bg" class="animable"></path><path d="M138,337.63c7.88-12.84,23-21.23,38.05-22-1.74,6.12-6.77,10.88-12.45,13.75s-12,4.13-18.26,5.34c-2.43.48-5.76,1-7.34,2.9" style="fill: rgb(224, 224, 224); transform-origin: 157.025px 326.63px;" id="ela1ytpzf093j" class="animable"></path><path d="M131.93,300.21c2.14-7.31,4.28-14.68,4.87-22.28s-.5-15.52-4.44-22c-7.36,14.25-8.1,30.89-.65,45.09" style="fill: rgb(224, 224, 224); transform-origin: 131.709px 278.475px;" id="el9aos6p1tlkm" class="animable"></path><path d="M156.72,287.69c8.61-15.65,26.17-28.15,43.94-29.9-6.85,17.07-25.55,30.26-43.94,29.9" style="fill: rgb(224, 224, 224); transform-origin: 178.69px 272.744px;" id="el9rnav29w1qj" class="animable"></path><path d="M151.3,290.75c12.84,2,23.78,10.16,35.78,15.13a16.08,16.08,0,0,0,8.09,1.55c2.75-.36,5.47-2.21,6.09-4.92a7.07,7.07,0,0,0-2.13-6.28,17.28,17.28,0,0,0-5.87-3.57c-13.07-5.44-27.09-5.57-40.85-2.27" style="fill: rgb(224, 224, 224); transform-origin: 176.326px 297.827px;" id="elmkpdhgg894s" class="animable"></path><path d="M143.87,299.76c2.91.83,3.9,2.33,6.2,4.29A66.8,66.8,0,0,0,177.2,318c1,.26,2.4.36,2.91-.58s-.12-1.8-.7-2.53c-4.17-5.22-10.12-8.79-16.38-11.12s-11.68-5.14-19.16-4.54" style="fill: rgb(224, 224, 224); transform-origin: 162.084px 308.663px;" id="el7j5gpo6stle" class="animable"></path><path d="M135.49,245.37a51.33,51.33,0,0,0,39.36,13.39,2.67,2.67,0,0,0,1.79-.64c1-1.08-.19-2.74-1.35-3.64-11.57-9-25.59-12.77-39.8-9.11" style="fill: rgb(224, 224, 224); transform-origin: 156.252px 251.473px;" id="el02nveqsrc7po" class="animable"></path><path d="M145.43,241.73a54.84,54.84,0,0,1,49.12-8.1c-6.19,6.09-14.77,9.37-23.41,10.27a74.1,74.1,0,0,1-25.71-2.17" style="fill: rgb(224, 224, 224); transform-origin: 169.99px 237.63px;" id="elkqoylcg30ls" class="animable"></path><path d="M141.48,216.74c-1.14-11.55-.4-20.67-1.2-32.28-.07-.92-.27-2-1.13-2.37-1.21-.47-2.22,1-2.61,2.25a37,37,0,0,0,4.92,32.14" style="fill: rgb(224, 224, 224); transform-origin: 138.167px 199.37px;" id="elvdpq722uy4" class="animable"></path><path d="M140.65,218c7.83-4.85,13.7-11.17,19.13-18.6,3.78-5.17,7-11.37,6.11-17.72-5.31-.1-10.35,2.83-13.8,6.86s-5.51,9.07-7,14.16-2.6,10.3-4.4,15.3" style="fill: rgb(224, 224, 224); transform-origin: 153.345px 199.839px;" id="elmbd09e0olz" class="animable"></path><path d="M159.45,212.79A154.25,154.25,0,0,0,206.54,185c-5.63-2.27-12.07-.91-17.69,1.36-12.85,5.18-23.35,13.94-29.65,26.28" style="fill: rgb(224, 224, 224); transform-origin: 182.87px 198.311px;" id="elqw6hey8j28" class="animable"></path><path d="M145.93,224.33c8.7.95,17.53,1.57,26.15.13s16.49-4.77,24.41-8.11a2.85,2.85,0,0,0,1.66-1.26,1.92,1.92,0,0,0-.59-2.09,5.08,5.08,0,0,0-2.09-1c-8.61-2.41-17.9-1.28-26.38,1.57a123.19,123.19,0,0,0-23.16,10.73" style="fill: rgb(224, 224, 224); transform-origin: 172.091px 217.999px;" id="el0kfhhqi21ell" class="animable"></path><path d="M96.3,245.76c-5.93-12-5.55-25.94-.43-38.28,3.61,5.5,4,12.5,3.39,19s-2.65,13.27-2.78,19.84" style="fill: rgb(224, 224, 224); transform-origin: 95.7185px 226.9px;" id="elkatkp2nr8g8" class="animable"></path><path d="M72.6,233.81a53.38,53.38,0,0,0-39.67,16.91c7.39,1.16,15-.75,21.72-4s12.7-7.89,18.62-12.46" style="fill: rgb(224, 224, 224); transform-origin: 53.1px 242.434px;" id="elgidcs98cv9" class="animable"></path><path d="M56.68,228.49c-7.25-.59-14.22-1.49-21.18.65s-13.31,7-16.15,13.68c6.78.77,13.65-.93,19.86-3.74s11.86-6.72,17.47-10.59" style="fill: rgb(224, 224, 224); transform-origin: 38.015px 235.397px;" id="elqgx4dob3zdh" class="animable"></path><path d="M80.26,228.73c-6.52-4.27-13.21-8.62-20.8-10.39s-16.38-.46-21.67,5.26c6.14,3.61,13.6,4,20.72,4s15.85-.09,22.56,2.29" style="fill: rgb(224, 224, 224); transform-origin: 59.43px 223.748px;" id="elh467tcnzgis" class="animable"></path><path d="M80.3,229.08c-11.14-10.94-15.37-30.6-10.88-45.55A69.42,69.42,0,0,1,80.3,229.08" style="fill: rgb(224, 224, 224); transform-origin: 74.1851px 206.305px;" id="el9vfgfzjctse" class="animable"></path><path d="M110.93,198.08c2.1-4.89,3.58-10,5.47-15s4.23-9.87,7.79-13.82,8.48-6.89,13.79-7.15a55.6,55.6,0,0,1-26.77,36" style="fill: rgb(224, 224, 224); transform-origin: 124.455px 180.11px;" id="ele1vo4pqynzp" class="animable"></path><path d="M105.39,204.54c-3.48-4.79-7.49-11.28-12.21-14.86S82.33,184,76.57,185.32a38.69,38.69,0,0,0,28.82,19.22" style="fill: rgb(224, 224, 224); transform-origin: 90.98px 194.731px;" id="el01p6ba09wvqb" class="animable"></path><path d="M106.5,198.48c-2.28-5.79-4.58-11.65-5.5-17.8s-.36-12.73,2.79-18.1c6.11,11.56,8.08,24,3,36" style="fill: rgb(224, 224, 224); transform-origin: 105.145px 180.58px;" id="elw2afkb753ee" class="animable"></path><path d="M111,162.58c3.46-11.46,14-19.9,25.29-23.77a9.39,9.39,0,0,1,4.43-.66,3.86,3.86,0,0,1,3.27,2.72c.41,1.95-1.2,3.7-2.72,5A86,86,0,0,1,111,162.58" style="fill: rgb(224, 224, 224); transform-origin: 127.527px 150.345px;" id="el8dr9gmtsvuq" class="animable"></path><path d="M111.11,153.21c.44-7.39.91-14.89,3.31-21.89s7-13.57,13.77-16.63c1.15,7.46-2.14,14.89-6.11,21.31s-8.76,12.48-11.15,19.65" style="fill: rgb(224, 224, 224); transform-origin: 119.676px 135.17px;" id="elxgq17trkrmk" class="animable"></path><path d="M110.93,158.29c-2.86-8.35-3.16-19-8.16-26.23-3.49-5.09-9.09-8.55-12.1-13.94-2,5-1.39,10.83.7,15.82s5.55,9.3,9.25,13.25,6.87,6.92,10.31,11.1" style="fill: rgb(224, 224, 224); transform-origin: 100.189px 138.205px;" id="elbsfw4ev23bt" class="animable"></path><path d="M111,404.25c-.22,0-.42-55.72-.43-124.43s.15-124.44.37-124.44.42,55.71.43,124.44S111.21,404.25,111,404.25Z" style="fill: rgb(224, 224, 224); transform-origin: 110.97px 279.815px;" id="eln43ix6pan" class="animable"></path><path d="M159.68,237.36a12.24,12.24,0,0,1-2.1.78l-5.76,2c-4.86,1.65-11.54,4-18.79,7s-13.94,5.58-17.8,8.92a13.06,13.06,0,0,0-3.57,4.73c-.55,1.31-.65,2.11-.73,2.09a1.7,1.7,0,0,1,0-.58,8.25,8.25,0,0,1,.41-1.62,12.55,12.55,0,0,1,3.49-5,31.17,31.17,0,0,1,7.72-4.79c3.09-1.45,6.51-2.95,10.15-4.44,7.27-3,14-5.3,18.91-6.82,2.46-.77,4.46-1.33,5.85-1.71A11.09,11.09,0,0,1,159.68,237.36Z" style="fill: rgb(224, 224, 224); transform-origin: 135.293px 250.12px;" id="el20cuymee2q" class="animable"></path><path d="M175.64,198.16a4.48,4.48,0,0,1-.59.62l-1.79,1.68-6.67,6.07-22.22,19.78C135.7,234,128.21,241.4,123,247c-2.6,2.78-4.64,5.07-6,6.68l-1.62,1.84a3.16,3.16,0,0,1-.6.61,3.27,3.27,0,0,1,.48-.71c.34-.45.83-1.12,1.5-1.94,1.32-1.67,3.31-4,5.87-6.86a281.6,281.6,0,0,1,21.24-20.87c8.7-7.7,16.62-14.61,22.37-19.6l6.84-5.87,1.89-1.57A3.33,3.33,0,0,1,175.64,198.16Z" style="fill: rgb(224, 224, 224); transform-origin: 145.21px 227.145px;" id="eloc0w465cf6" class="animable"></path><path d="M135,234.15c-.23-.1,1.59-4.28,3.39-9.57s2.68-9.75,2.91-9.71-.3,4.61-2.15,10a65.59,65.59,0,0,1-2.69,6.69A10.15,10.15,0,0,1,135,234.15Z" style="fill: rgb(224, 224, 224); transform-origin: 138.165px 224.51px;" id="elgo9il99mjlb" class="animable"></path><path d="M111,267.88a11,11,0,0,1-1.34-1.56l-3.42-4.38c-2.87-3.72-6.85-8.85-11.31-14.47s-8.55-10.65-11.52-14.29L80,228.85a9.75,9.75,0,0,1-1.21-1.66,11.4,11.4,0,0,1,1.44,1.45c.9,1,2.16,2.39,3.7,4.17,3.08,3.55,7.25,8.54,11.72,14.16s8.36,10.82,11.13,14.62c1.38,1.91,2.48,3.46,3.22,4.55A9.2,9.2,0,0,1,111,267.88Z" style="fill: rgb(224, 224, 224); transform-origin: 94.895px 247.535px;" id="eldc7kfvkdkr9" class="animable"></path><path d="M100.36,254.17c-.13.14-3-3.24-4.47-8.37a23.8,23.8,0,0,1-1-8.44l.35,0c-.16.64-.27,1-.34,1s-.06-.37,0-1l.36,0a38.39,38.39,0,0,0,1.42,8.21C98.11,250.54,100.58,254,100.36,254.17Z" style="fill: rgb(224, 224, 224); transform-origin: 97.6093px 245.767px;" id="elvrrp1crsk3c" class="animable"></path><path d="M86.58,236.83A14.82,14.82,0,0,0,83.46,235c-2.09-.81-5.22-1-8.67-.69a53.23,53.23,0,0,0-8.73,1.41,25.93,25.93,0,0,1-3.59.86,12.75,12.75,0,0,1,3.44-1.41,40,40,0,0,1,8.82-1.66c3.48-.3,6.79,0,8.94,1S86.65,236.81,86.58,236.83Z" style="fill: rgb(224, 224, 224); transform-origin: 74.527px 235.115px;" id="el9m545u5kqq" class="animable"></path><path d="M83.32,232.63c-.07.13-1.82-.73-4.79-1.74a49.14,49.14,0,0,0-11.93-2.46,50,50,0,0,0-12.18.62c-3.08.55-5,1.13-5,1a4.81,4.81,0,0,1,1.27-.54,29.8,29.8,0,0,1,3.61-1,42.54,42.54,0,0,1,24.42,1.87,28.31,28.31,0,0,1,3.41,1.55A4.92,4.92,0,0,1,83.32,232.63Z" style="fill: rgb(224, 224, 224); transform-origin: 66.37px 230.084px;" id="el9ou2ofj9rn" class="animable"></path><path d="M110.93,214.87c-.21,0-1.77-5.38-3.49-12.12s-2.92-12.27-2.7-12.32,1.77,5.37,3.49,12.12S111.15,214.81,110.93,214.87Z" style="fill: rgb(224, 224, 224); transform-origin: 107.835px 202.65px;" id="el8skhl4bfdkd" class="animable"></path><path d="M111.16,214.87c-.24.07-1.25-3.55-3.87-7.26s-5.81-5.69-5.69-5.87a5.12,5.12,0,0,1,2.19,1.13,17.55,17.55,0,0,1,4.16,4.28C110.67,211,111.35,214.85,111.16,214.87Z" style="fill: rgb(224, 224, 224); transform-origin: 106.393px 208.305px;" id="elltsoeaudz3d" class="animable"></path><path d="M111,374.55c-.09,0-.25-1.34-.88-3.71a53,53,0,0,0-3.72-9.64c-3.85-7.87-10.86-17.84-19.76-27.83-4.41-5-8.69-9.79-12.32-14.35a102,102,0,0,1-8.81-12.7,60.58,60.58,0,0,1-4.44-9.43c-.41-1.16-.71-2.07-.88-2.7a5.84,5.84,0,0,1-.23-1c.08,0,.48,1.27,1.4,3.55A69.71,69.71,0,0,0,66,306a106.76,106.76,0,0,0,8.9,12.53c3.65,4.5,7.93,9.23,12.35,14.28,8.92,10,15.91,20.11,19.66,28.11a47.61,47.61,0,0,1,3.51,9.82,26.22,26.22,0,0,1,.5,2.79A4.33,4.33,0,0,1,111,374.55Z" style="fill: rgb(224, 224, 224); transform-origin: 85.4817px 333.87px;" id="elzsmehj8fmpe" class="animable"></path><path d="M155,324.85a20.85,20.85,0,0,1-2.31,1.3,50.09,50.09,0,0,0-6,4,68.63,68.63,0,0,0-7.86,7.17c-2.75,2.91-5.59,6.29-8.49,9.91-5.8,7.28-11.22,13.71-14.46,18.84-1.65,2.55-2.85,4.7-3.63,6.21a20.13,20.13,0,0,1-1.27,2.32,2.17,2.17,0,0,1,.21-.66c.17-.41.41-1,.78-1.8a58.12,58.12,0,0,1,3.43-6.37c3.15-5.26,8.53-11.78,14.31-19,2.91-3.63,5.78-7,8.59-9.93a63.12,63.12,0,0,1,8.05-7.1,41.52,41.52,0,0,1,6.17-3.78c.77-.38,1.39-.62,1.8-.8A2.85,2.85,0,0,1,155,324.85Z" style="fill: rgb(224, 224, 224); transform-origin: 132.99px 349.725px;" id="elhmfkscx1erl" class="animable"></path><path d="M155.85,341a34.93,34.93,0,0,1-4.88.7A64.32,64.32,0,0,0,139.41,344a35,35,0,0,0-10.35,5.43c-2.38,1.84-3.51,3.37-3.62,3.28a3.78,3.78,0,0,1,.73-1.12,18.31,18.31,0,0,1,2.53-2.6,31.5,31.5,0,0,1,10.47-5.76,51.74,51.74,0,0,1,11.75-2.07A26.22,26.22,0,0,1,155.85,341Z" style="fill: rgb(224, 224, 224); transform-origin: 140.645px 346.832px;" id="elcfwq3cfkcr6" class="animable"></path><path d="M126.87,350.9c-.26-.14,1.94-3.5,3.64-8s2-8.55,2.26-8.5a7.51,7.51,0,0,1-.08,2.61,27.73,27.73,0,0,1-1.42,6.16,29.49,29.49,0,0,1-2.83,5.65A7.9,7.9,0,0,1,126.87,350.9Z" style="fill: rgb(224, 224, 224); transform-origin: 129.848px 342.65px;" id="elm5h3foznre" class="animable"></path><path d="M169.23,281.57a3.21,3.21,0,0,1-.78.42l-2.29,1c-1,.43-2.22,1-3.59,1.7s-3,1.44-4.66,2.45l-2.65,1.51c-.93.53-1.84,1.16-2.81,1.76-2,1.19-3.92,2.66-6,4.15a103.4,103.4,0,0,0-23.18,24c-1.42,2.15-2.82,4.16-3.94,6.16-.58,1-1.17,1.92-1.67,2.86l-1.42,2.71c-1,1.71-1.62,3.34-2.29,4.74s-1.18,2.63-1.57,3.65l-1,2.32a4.22,4.22,0,0,1-.39.8,3.2,3.2,0,0,1,.23-.85l.82-2.38c.36-1,.82-2.3,1.46-3.72s1.27-3.08,2.19-4.81l1.38-2.75c.49-1,1.08-1.9,1.64-2.91,1.11-2,2.49-4.07,3.91-6.24A99.26,99.26,0,0,1,146,294c2.12-1.49,4.11-2.95,6.1-4.12,1-.6,1.91-1.22,2.85-1.74l2.7-1.47c1.7-1,3.33-1.68,4.74-2.36s2.64-1.19,3.66-1.58l2.35-.9A4.45,4.45,0,0,1,169.23,281.57Z" style="fill: rgb(224, 224, 224); transform-origin: 140.11px 311.685px;" id="elcfmftrklwog" class="animable"></path><path d="M134.41,304.9a5.65,5.65,0,0,1,1.92-2.85,12.11,12.11,0,0,1,7.71-3,21.22,21.22,0,0,1,8.12,1.59,11.55,11.55,0,0,1,3.07,1.49,19.29,19.29,0,0,1-3.26-.95,24.25,24.25,0,0,0-7.9-1.32,12.52,12.52,0,0,0-7.37,2.58A24.87,24.87,0,0,0,134.41,304.9Z" style="fill: rgb(224, 224, 224); transform-origin: 144.82px 301.975px;" id="elmdqu92pbew" class="animable"></path><path d="M129.21,310.27c-.22-.12,1.74-3,2.19-7.12s-.73-7.37-.49-7.44a4.58,4.58,0,0,1,.9,2.07,14.72,14.72,0,0,1-1.24,10.68C129.89,309.69,129.29,310.33,129.21,310.27Z" style="fill: rgb(224, 224, 224); transform-origin: 130.746px 302.992px;" id="eliv8m44bte0j" class="animable"></path><path d="M72.51,382.53c1.2,21.29,7.62,43,17.48,64.84h42.92c9.41-21.68,15.39-43.3,16.45-64.84Z" style="fill: rgb(224, 224, 224); transform-origin: 110.935px 414.95px;" id="elqi9ot7tjtw8" class="animable"></path><path d="M142.4,417c0,.22-14.13.4-31.55.4s-31.56-.18-31.56-.4,14.12-.41,31.56-.41S142.4,416.76,142.4,417Z" style="fill: rgb(250, 250, 250); transform-origin: 110.845px 416.995px;" id="elewh01ik4so6" class="animable"></path><path d="M141.44,424.7c0,.22-13.24.4-29.58.4s-29.59-.18-29.59-.4,13.25-.4,29.59-.4S141.44,424.48,141.44,424.7Z" style="fill: rgb(250, 250, 250); transform-origin: 111.855px 424.7px;" id="elfwhqk2fdlxb" class="animable"></path><path d="M90.69,396.51c.22,0,.4,4.43.4,9.89s-.18,9.88-.4,9.88-.41-4.42-.41-9.88S90.47,396.51,90.69,396.51Z" style="fill: rgb(250, 250, 250); transform-origin: 90.685px 406.395px;" id="elcot9dzf6nof" class="animable"></path><path d="M113.68,396.51c.22,0,.4,4.58.4,10.24s-.18,10.24-.4,10.24-.4-4.59-.4-10.24S113.46,396.51,113.68,396.51Z" style="fill: rgb(250, 250, 250); transform-origin: 113.68px 406.75px;" id="elejgjm5hq42q" class="animable"></path><path d="M135.27,396.34c.22,0,.4,4.67.4,10.44s-.18,10.44-.4,10.44-.41-4.67-.41-10.44S135.05,396.34,135.27,396.34Z" style="fill: rgb(250, 250, 250); transform-origin: 135.265px 406.78px;" id="elpb3mhr5uakc" class="animable"></path><path d="M148,396.51c0,.22-16.57.4-37,.4s-37-.18-37-.4,16.57-.4,37-.4S148,396.29,148,396.51Z" style="fill: rgb(250, 250, 250); transform-origin: 111px 396.51px;" id="elecgeuvpirb4" class="animable"></path></g><g id="freepik--Floor--inject-28" class="animable" style="transform-origin: 372.95px 447.11px;"><path d="M707.18,447.11c0,.14-149.66.26-334.22.26s-334.24-.12-334.24-.26,149.62-.26,334.24-.26S707.18,447,707.18,447.11Z" style="fill: rgb(38, 50, 56); transform-origin: 372.95px 447.11px;" id="eljbdzqpbfu2" class="animable"></path></g><g id="freepik--Table--inject-28" class="animable" style="transform-origin: 330.87px 383.93px;"><path d="M180.68,327.42v76.22H483.12V327.42ZM452.76,387H207V332.77H452.76Z" style="fill: rgb(69, 90, 100); transform-origin: 331.9px 365.53px;" id="elirgy6k1x3np" class="animable"></path><rect x="168.11" y="320.92" width="325.52" height="11.74" style="fill: rgb(69, 90, 100); transform-origin: 330.87px 326.79px;" id="elio170iccc7" class="animable"></rect><path d="M493.63,332.71s-72.87.05-162.75.05-162.77,0-162.77-.05,72.86,0,162.77,0S493.63,332.69,493.63,332.71Z" style="fill: rgb(38, 50, 56); transform-origin: 330.87px 332.724px;" id="elu2z2do4uzba" class="animable"></path><path d="M493.63,321s-72.87,0-162.75,0-162.77,0-162.77,0,72.86-.05,162.77-.05S493.63,320.94,493.63,321Z" style="fill: rgb(38, 50, 56); transform-origin: 330.87px 320.975px;" id="elpvrqdl8115r" class="animable"></path><rect x="180.68" y="388.06" width="26.27" height="58.88" style="fill: rgb(69, 90, 100); transform-origin: 193.815px 417.5px;" id="elliw9h8zs3j" class="animable"></rect><rect x="452.65" y="386.99" width="30.48" height="59.86" style="fill: rgb(69, 90, 100); transform-origin: 467.89px 416.92px;" id="eld3wn3gzlcnj" class="animable"></rect><path d="M452.65,445.86c-.15,0-.27-25.37-.27-56.66s.12-56.66.27-56.66.26,25.36.26,56.66S452.79,445.86,452.65,445.86Z" style="fill: rgb(38, 50, 56); transform-origin: 452.645px 389.2px;" id="el7aj1xujl3ka" class="animable"></path><path d="M207,446.94c-.14,0-.26-25.56-.26-57.09s.12-57.08.26-57.08.27,25.55.27,57.08S207.1,446.94,207,446.94Z" style="fill: rgb(38, 50, 56); transform-origin: 207.005px 389.855px;" id="elf50xhf2rf1k" class="animable"></path></g><g id="freepik--device-2--inject-28" class="animable" style="transform-origin: 327.445px 369.985px;"><rect x="264.26" y="353.05" width="126.37" height="14.27" style="fill: rgb(38, 50, 56); transform-origin: 327.445px 360.185px;" id="el6wuq8laltbq" class="animable"></rect><rect x="267.5" y="367.33" width="119.9" height="4.28" style="fill: rgb(51, 188, 183); transform-origin: 327.45px 369.47px;" id="eln9s4lwxz61" class="animable"></rect><rect x="264.26" y="370.63" width="126.37" height="14.27" style="fill: rgb(38, 50, 56); transform-origin: 327.445px 377.765px;" id="el18pvot5176g" class="animable"></rect><rect x="268.86" y="384.91" width="116.19" height="2.01" style="fill: rgb(38, 50, 56); transform-origin: 326.955px 385.915px;" id="elxauyuxfqv4" class="animable"></rect><rect x="267.91" y="373.01" width="4.28" height="2.18" style="fill: rgb(69, 90, 100); transform-origin: 270.05px 374.1px;" id="elcfxharr08mv" class="animable"></rect><rect x="273.73" y="373.01" width="4.28" height="2.18" style="fill: rgb(255, 255, 255); transform-origin: 275.87px 374.1px;" id="elmh5qsztb0dc" class="animable"></rect></g><g id="freepik--device-1--inject-28" class="animable" style="transform-origin: 326.94px 180.065px;"><rect x="134.97" y="39.2" width="383.94" height="258.73" style="fill: rgb(38, 50, 56); transform-origin: 326.94px 168.565px;" id="elwvu0a24mlpf" class="animable"></rect><rect x="292.66" y="291.16" width="69.58" height="29.77" style="fill: rgb(38, 50, 56); transform-origin: 327.45px 306.045px;" id="elu6o5cclfykm" class="animable"></rect><g id="eljrn2d6b10qk"><rect x="144.66" y="43.38" width="364.39" height="247.78" style="fill: rgb(69, 90, 100); transform-origin: 326.855px 167.27px; transform: rotate(180deg);" class="animable"></rect></g><path d="M282.18,102.62A19.94,19.94,0,0,1,285.74,77,19.08,19.08,0,0,0,283,78.48a19.93,19.93,0,1,0,24,31.7A19.94,19.94,0,0,1,282.18,102.62Z" style="fill: rgb(51, 188, 183); transform-origin: 290.474px 96.055px;" id="el8zwpqv121v7" class="animable"></path><g id="eldjvc3kfjabm"><g style="opacity: 0.3; transform-origin: 171.585px 167.765px;" class="animable"><polygon points="198.51 292.15 166.14 226.11 166.14 135.73 177.66 115.39 171.9 109.41 161.79 122.73 166.65 43.55 144.66 43.38 144.66 292.15 198.51 292.15" id="elit117af9zlk" class="animable" style="transform-origin: 171.585px 167.765px;"></polygon></g></g><g id="elceq9y2592o6"><g style="opacity: 0.3; transform-origin: 475.375px 167.325px;" class="animable"><path d="M446.85,43.33,479.7,100.5,455.51,291.32h19.15S503.9,95.59,503.9,94.1s-6.2-50.72-6.2-50.72l-15.32-.05L488.63,88,463.77,43.38Z" id="elz0k8ffiebi" class="animable" style="transform-origin: 475.375px 167.325px;"></path></g></g><g id="elot7rngvl9ur"><g style="opacity: 0.3; transform-origin: 379.08px 167.295px;" class="animable"><path d="M412,43.38c.14,0-4.33,82.8-4.33,82.8L411.72,145l6.32-10.8,4.47,5.86-9.89,12.36,14.67,138.79H397.63l4.06-71.72L389.14,109.13,330.87,43.38H353L392.81,88.6l3.54-45.22Z" id="el1avss5l126c" class="animable" style="transform-origin: 379.08px 167.295px;"></path></g></g><g id="elude9qgpic4p"><g style="opacity: 0.3; transform-origin: 251.61px 168.24px;" class="animable"><path d="M232.92,44.35c-.13,0,4.34,82.8,4.34,82.8l-4.06,18.77-6.33-10.8L222.41,141l9.89,12.36L217.63,292.13h29.66l-4.06-71.72L255.78,110.1l29.81-65.75H274.45l-29.71,72.71-5-72.71Z" id="eln0p98fnkvg" class="animable" style="transform-origin: 251.61px 168.24px;"></path></g></g><path d="M253.31,291.32c.47-2.44-3.3-101.39-3.3-101.39l-29.73-84.27L230.57,44l-32-.48-6,65.68L172,86l-4.47,3.32L191,118,224.24,193l-1.33,98.32Z" style="fill: rgb(38, 50, 56); transform-origin: 210.44px 167.42px;" id="elifkfy670yh" class="animable"></path><path d="M319.17,121.16c-1.33.53-12.21,2.92-16.19,4s-12.48,12.21-12.48,12.21l-4.24,12.74L278,155.93l-3.19,6.1-1.32,6.54L272.19,178v5l-17.25,37.16,13.8,1.59,23.89-28.4s3.18-3.71,3.71-5.57,9-6.64,9-6.64l2.91,15.66-4.51,27.07-4,17.52-4.25,17.25L285,291.16l42.86.33s7.81-28.6,10.73-28.86,5.51,28.53,5.51,28.53H380s.74-26.41-.05-39.68-5.58-45.65-5.58-45.65l10.89,12.37,1.85,7.8a93.76,93.76,0,0,0-2.92,9.55c-.53,2.92,2.92,7.7,2.92,7.7s1.86-3.72,1.86-6.1V232.1l5,6.11,1.85,5.57-4.24,4s-2.39,3.72-.27,4.25,4.51-2.39,4.51-2.39l3.19-1.86-3.19,6.64s3.72,1.59,5.31-.27,3.72-8.76,3.72-8.76v-8.76L403,224.94,386.58,196l-8-19.91s-8-32.38-8.49-33.18-8-7.7-8-7.7l-8.22-9.82,4.24-14.06s2.66-12.21,1.33-17-6.1-13.27-15.39-12.47-15.4,10.88-15.93,17.78c0,0-3.28,1-3.45,2.92-.5,5.51,3.72,7.21,3.72,7.21l-.8,8.45-4-1.86Z" style="fill: rgb(38, 50, 56); transform-origin: 329.895px 186.649px;" id="eljvze3ws78ae" class="animable"></path><path d="M338.69,101.11c.28.13,5.6,6.21,5.6,6.21a5.7,5.7,0,0,1-4.45-.54C337.74,105.47,338.69,101.11,338.69,101.11Z" style="fill: rgb(51, 188, 183); transform-origin: 341.383px 104.329px;" id="el78motgjtpdn" class="animable"></path><path d="M357.44,104.86l-7.05,2.86c-.24-.26,1.87,2.42,4.25,1.71S357.44,104.86,357.44,104.86Z" style="fill: rgb(51, 188, 183); transform-origin: 353.906px 107.205px;" id="elyewpem9k04c" class="animable"></path><polygon points="451.07 43.34 450.76 247.67 450.76 291.49 409.42 291.16 416.48 103.71 414.62 43.38 451.07 43.34" style="fill: rgb(38, 50, 56); transform-origin: 430.245px 167.415px;" id="eliuxjv5v5ce" class="animable"></polygon><polygon points="446.74 128.67 467.97 100.79 473.49 107.58 446.74 149.44 446.74 128.67" style="fill: rgb(38, 50, 56); transform-origin: 460.115px 125.115px;" id="elbtt08qem11c" class="animable"></polygon><path d="M198.43,93l-2.37-4.27C194,85,191.18,79.89,188,74.24s-6.18-10.71-8.34-14.38L177.1,55.5a9.91,9.91,0,0,1-.86-1.64,7.69,7.69,0,0,1,1.1,1.49c.67,1,1.61,2.43,2.75,4.23,1.52,2.42,3.4,5.48,5.43,8.93-.06-.35-.12-.75-.19-1.18-.3-2-.67-4.68-1-7.69s-.65-5.74-.81-7.72a13.94,13.94,0,0,1-.12-3.22,14.2,14.2,0,0,1,.65,3.16c.3,2,.67,4.68,1,7.69s.65,5.74.81,7.72c.07.84.12,1.54.15,2.07.85,1.45,1.73,3,2.62,4.53,3.21,5.65,6,10.85,7.9,14.64.82,1.6,1.48,2.95,2,4" style="fill: rgb(38, 50, 56); transform-origin: 187.385px 70.85px;" id="elo5f8r7sh808" class="animable"></path><path d="M235.22,246.36,200,203.28c0-.64-.07-1.58-.16-2.74-.16-2.28-.43-5.41-.78-8.87s-.69-6.58-1-8.84a26.14,26.14,0,0,0-.55-3.65c-.28,0,.07,5.66.76,12.57,0,.36.07.71.11,1.06a43.5,43.5,0,0,0-3.36-4.86c-2.64-3.35-5.23-5.64-5.37-5.5s2.17,2.66,4.78,6c1.79,2.26,3.24,4.29,4.05,5.32.27,2.66.55,5,.79,6.86.12.9.23,1.66.33,2.25l-33.93-10.47,12.73,4.84a54.46,54.46,0,0,0-7.28,2.39,36.35,36.35,0,0,0-4.41-.67,24.1,24.1,0,0,0-4.95-.25c-.07.28,2.15.72,4.87,1,1.45.16,2.75.24,3.66.25-4.43,1.82-7.75,3.72-7.66,3.89s3.73-1.49,8.29-3.33c3.66-1.49,6.82-2.63,7.88-3.13l15,5.7,34.07,43.05" style="fill: rgb(38, 50, 56); transform-origin: 198.489px 212.77px;" id="eleg293ydo4i5" class="animable"></path><path d="M231,204l26-24.74,11.74-28.05,1.33-1.3-.24-.25-3.19-3.39-2.17-2.35a9.34,9.34,0,0,1-2-2.8c-1-.41-4.33-2.25-8.23-4.57-4.62-2.75-8.27-5.13-8.16-5.31s3.93,1.91,8.54,4.66c3.63,2.16,6.65,4.08,7.73,4.9v0a11.43,11.43,0,0,0-.64-1.84c-.28-.62-.56-1.25-.86-1.89l-1.79-4c-1.21-2.68-2.35-5.25-3.38-7.59-1.07-.65-3.06-2-5.3-3.7-3.26-2.43-5.8-4.54-5.67-4.7s2.86,1.66,6.12,4.09c1.86,1.39,3.48,2.66,4.51,3.54-.93-2.11-1.76-4-2.46-5.64s-1.3-3.13-1.79-4.28a7,7,0,0,1-.56-1.62,8,8,0,0,1,.83,1.49l2,4.19c1.24,2.64,2.81,6,4.55,9.86,0-.44-.05-1-.07-1.59,0-1.88,0-4.48.08-7.35s.31-5.46.5-7.33a12.07,12.07,0,0,1,.49-3c.21,0,0,4.65-.24,10.37-.17,4.38-.29,8.12-.44,9.63.5,1.09,1,2.2,1.51,3.34.61,1.37,1.21,2.7,1.79,4,.28.64.56,1.28.84,1.9a11,11,0,0,1,.63,1.92,7.77,7.77,0,0,0,1.93,2.92l2.1,2.42,3,3.54.22.26,28.06-27.33h1.53l-8,8a13.88,13.88,0,0,1,1.6.11c2,.34,4.86-.16,8-.45s6-.56,8.11-.69a14.66,14.66,0,0,1,3.39-.07,15.92,15.92,0,0,1-3.33.6c-1.92.25-4.52.55-7.41.84.32.14.75.34,1.23.6,1.16.59,2.73,1.45,4.43,2.44,3.42,2,6.11,3.73,6,3.91s-3-1.27-6.38-3.26c-1.72-1-3.25-1.93-4.34-2.64-.54-.35-1-.65-1.26-.87l-.17-.13-.2,0c-3.14.29-6.07.72-8.18.23a12.9,12.9,0,0,0-1.91-.26l-21,21.16-12.24,28.31-24.74,25.25" style="fill: rgb(38, 50, 56); transform-origin: 272.432px 157.465px;" id="el6qwqg0e6w19" class="animable"></path><path d="M425.15,137.89l-26-24.73L387.4,85.1l-1.33-1.3.24-.25c.86-.91,1.93-2,3.18-3.38l2.17-2.36a9.14,9.14,0,0,0,2-2.79c1-.41,4.33-2.25,8.23-4.58,4.62-2.75,8.27-5.12,8.16-5.3s-3.94,1.91-8.55,4.66c-3.62,2.15-6.64,4.08-7.72,4.89h0a12.58,12.58,0,0,1,.63-1.85c.29-.62.57-1.25.86-1.89l1.8-4c1.21-2.69,2.35-5.25,3.38-7.59,1.07-.65,3.06-2,5.3-3.71,3.25-2.43,5.79-4.53,5.67-4.7s-2.87,1.67-6.13,4.1c-1.85,1.38-3.47,2.66-4.5,3.53.93-2.1,1.76-4,2.45-5.64l1.8-4.28a7,7,0,0,0,.56-1.61,7.34,7.34,0,0,0-.83,1.49l-2,4.18c-1.25,2.64-2.82,6-4.55,9.87,0-.45,0-1,.06-1.6.05-1.88,0-4.47-.07-7.34s-.31-5.46-.5-7.33a12.07,12.07,0,0,0-.49-3c-.22,0,0,4.65.24,10.37.17,4.37.29,8.11.43,9.63l-1.5,3.34-1.79,4q-.42,1-.84,1.89a11.3,11.3,0,0,0-.63,1.92,8.14,8.14,0,0,1-1.93,2.93c-.75.85-1.45,1.66-2.1,2.42l-3,3.54-.21.26L357.82,56.29h-1.53l8,8a10.7,10.7,0,0,0-1.61.11c-2,.34-4.85-.16-8-.45s-6-.56-8.11-.7a15.29,15.29,0,0,0-3.38-.07,14.29,14.29,0,0,0,3.33.6c1.91.26,4.52.56,7.4.85-.31.14-.74.34-1.23.59-1.15.6-2.72,1.46-4.43,2.44-3.41,2-6.1,3.74-6,3.92s2.95-1.28,6.38-3.26c1.72-1,3.25-1.93,4.33-2.64.55-.35,1-.65,1.27-.87a.91.91,0,0,1,.16-.13l.21,0c3.14.29,6.07.71,8.18.23a11.69,11.69,0,0,1,1.91-.26l21,21.16,12.24,28.31,24.74,25.24" style="fill: rgb(38, 50, 56); transform-origin: 383.704px 91.34px;" id="el3py2npaafmf" class="animable"></path><path d="M257.65,43.38c-.1.45-1.33,2.68-1.42,3l1,36.4-.51,2.53.16-.17,3.42-3.71c2.8-3,6.64-7.16,10.83-11.79a50.35,50.35,0,0,1,1.48-6.08c1.11-3.7,2.32-6.59,2.51-6.52s-.68,3.06-1.78,6.73c-.64,2.13-1.21,4-1.62,5.22,4.27-4.74,8.09-9.08,10.86-12.23L285.88,53a9,9,0,0,1,1.3-1.33,8.42,8.42,0,0,1-1.07,1.52c-.73.94-1.8,2.29-3.16,3.93-1.81,2.21-4.13,4.95-6.77,8l1.06-.55c1.77-.91,4.24-2.11,7-3.4s5.25-2.41,7.08-3.19a13.1,13.1,0,0,1,3-1.12,14.11,14.11,0,0,1-2.8,1.6c-1.77.91-4.23,2.11-7,3.4s-5.24,2.41-7.07,3.19c-.77.33-1.42.6-1.92.79-1.11,1.26-2.28,2.57-3.48,3.91-4.36,4.82-8.42,9.08-11.42,12.1-1.5,1.52-2.73,2.73-3.59,3.54l-.46.43-1.19,5.94,31.39-3.27,0,0c.68-.59,1.7-1.42,3-2.42,2.54-2,6.12-4.69,10.19-7.49,3-2.05,5.77-3.87,8.15-5.36,0-.3.85-2,1.68-4s1.42-4.13,1.64-4.09,0,2.06-.94,4.38a13.5,13.5,0,0,1-2,3.51c.74-.46,1.44-.89,2.09-1.27,1.38-.84,2.52-1.49,3.32-1.92a4.57,4.57,0,0,1,1.27-.61,40.12,40.12,0,0,1-4.31,3c-2.7,1.77-6.42,4.24-10.47,7l-3,2.11c1.79-.53,5.32-1.42,9.41-2.35,5.93-1.36,10.77-2.3,10.82-2.09s-4.72,1.46-10.65,2.82c-4.73,1.08-8.76,1.9-10.22,2.08-2.56,1.8-4.83,3.43-6.62,4.72-1.13.82-2.07,1.5-2.79,2l15.93,13.17c1.22-.38,5-1.18,9.58-2,5.56-1,10.09-1.64,10.13-1.44s-4.44,1.18-10,2.18c-4.32.78-8,1.34-9.47,1.46l14.65,12.1-32.9-24.48-30.6,5.87L220,133.56l-1-4.33L251.59,94l4.08-12-.51-35.71.87-3" style="fill: rgb(38, 50, 56); transform-origin: 270.995px 88.425px;" id="eluy8j3e72f0e" class="animable"></path><path d="M218.87,174.84c-.68-1-1.56-2.31-2.67-3.76-.73-1-1.54-2-2.46-3s-2-2.11-3.08-3.26c-2.16-2.29-4.59-4.78-7-7.53A136.78,136.78,0,0,1,192.3,142.4c-1.32-2-2.31-3.67-3-4.82a10.61,10.61,0,0,1-1-1.85,11.74,11.74,0,0,1,1.21,1.69c.75,1.11,1.81,2.72,3.18,4.68a169.7,169.7,0,0,0,11.49,14.67c2.39,2.73,4.8,5.23,7,7.57,1.07,1.17,2.11,2.25,3,3.32s1.71,2.13,2.42,3.1c1,1.32,1.72,2.51,2.32,3.51" style="fill: rgb(38, 50, 56); transform-origin: 203.61px 155.285px;" id="eltysjx1fug1s" class="animable"></path><path d="M184.18,159.34a9,9,0,0,1-3.22-.55c0-.12,1.25.05,3.23,0,.66,0,1.41-.05,2.22-.13.2-.2.34-.3.4-.26s0,.1,0,.23c1.51-.16,3.23-.42,5.05-.78,3-.59,5.69-1.16,7.69-1.4a10.85,10.85,0,0,1,3.25-.15,20,20,0,0,1-3.17.67L192,158.61a40.5,40.5,0,0,1-5.49.72,23.14,23.14,0,0,1-1.26,2.08c-1,1.53-2,2.68-2.19,2.56s.53-1.45,1.56-3c.42-.62.84-1.18,1.19-1.62C185.22,159.38,184.68,159.37,184.18,159.34Z" style="fill: rgb(38, 50, 56); transform-origin: 191.88px 160.11px;" id="ela4fk5us0u3s" class="animable"></path><polygon points="259.68 209.89 250.44 231.46 255.58 251.53 263.87 250.38 266.86 244.62 265.25 230.57 272.16 214.69 259.68 209.89" style="fill: rgb(38, 50, 56); transform-origin: 261.3px 230.71px;" id="elikj8flr5379" class="animable"></polygon><path d="M263,249.88a.91.91,0,0,1-.23,0c-.57-.14-1.19-1.23-4.66-11-.43-1.19-.83-2.32-.9-2.47l-.17-.23.15-.21,3.32-7.75,4,2.1.06.22s.59,2.45,1.11,5.54a10.33,10.33,0,0,1-.57,5.47,10.38,10.38,0,0,1,.95,3.14,5,5,0,0,1-1.53,4.45A2.69,2.69,0,0,1,263,249.88Zm-4.81-13.79c.12.3.34.93.86,2.38,1,2.85,3.33,9.39,4,10.4a2.82,2.82,0,0,0,1.07-.83,3.92,3.92,0,0,0,1-3.24c-.45-2.38-.88-2.9-.9-2.92l-.29-.26.2-.31a9.32,9.32,0,0,0,.6-5.14c-.42-2.52-.89-4.6-1-5.26L261,229.52Z" style="fill: rgb(38, 50, 56); transform-origin: 261.581px 239.054px;" id="elffq091qks7a" class="animable"></path><path d="M272.16,228.83s3.69,4.06,2.43,5.73-22.86,18.16-22.86,18.16l-2.91-6.32,16.95-11.25Z" style="fill: rgb(38, 50, 56); transform-origin: 261.836px 240.775px;" id="elcfc50vf6avt" class="animable"></path><path d="M249.1,246.36a684.72,684.72,0,0,0-71.44,42.86,10.87,10.87,0,0,0,8.57,2.9c3.1-.2,11.13-1.48,14-2.71,20.75-8.88,36.72-21.1,51.51-36.69" style="fill: rgb(38, 50, 56); transform-origin: 214.7px 269.269px;" id="elvxrz12037yf" class="animable"></path><path d="M344.31,83.67a20.43,20.43,0,0,0-3.23.74,14.89,14.89,0,0,0-6.33,4.66A28.47,28.47,0,0,0,330.81,96a29.64,29.64,0,0,1-1.33,3.08,3.26,3.26,0,0,1,.2-.89c.17-.55.42-1.35.78-2.33a25.61,25.61,0,0,1,3.89-7.13A14.3,14.3,0,0,1,341,84.06a9.21,9.21,0,0,1,2.44-.44A2.61,2.61,0,0,1,344.31,83.67Z" style="fill: rgb(51, 188, 183); transform-origin: 336.895px 91.3421px;" id="ely91ou498xrb" class="animable"></path><path d="M326.33,105.72c-.06,0-.26-.17-.43-.59a3.15,3.15,0,0,1-.17-1.74,3.27,3.27,0,0,1,.73-1.59c.3-.34.56-.46.6-.42a10.89,10.89,0,0,0-.82,2.1A10.6,10.6,0,0,0,326.33,105.72Z" style="fill: rgb(51, 188, 183); transform-origin: 326.368px 103.546px;" id="elmokojri6cgm" class="animable"></path><path d="M329.16,119.33a15.34,15.34,0,0,1-.17-4,14.87,14.87,0,0,1,.35-3.93,15.34,15.34,0,0,1,.17,4A14.8,14.8,0,0,1,329.16,119.33Z" style="fill: rgb(51, 188, 183); transform-origin: 329.25px 115.365px;" id="el6fgv8rt4bxi" class="animable"></path><path d="M319,122.73a12.32,12.32,0,0,1,2.13-2.8,12.24,12.24,0,0,1,2.52-2.45,11.64,11.64,0,0,1-2.13,2.8A12,12,0,0,1,319,122.73Z" style="fill: rgb(51, 188, 183); transform-origin: 321.325px 120.105px;" id="elslg9u2i9kc" class="animable"></path><path d="M302.2,127.41a8.31,8.31,0,0,1,2-.85c1.25-.45,3-1,5-1.51s3.77-.86,5.09-1.06a8.11,8.11,0,0,1,2.15-.21c0,.15-3.2.77-7.11,1.78S302.25,127.55,302.2,127.41Z" style="fill: rgb(51, 188, 183); transform-origin: 309.32px 125.599px;" id="el6wfaaq8kyh" class="animable"></path><path d="M292.59,137.55a42.83,42.83,0,0,1,3.25-3.94,45.14,45.14,0,0,1,3.28-3.91,17.55,17.55,0,0,1-2.88,4.24A17.78,17.78,0,0,1,292.59,137.55Z" style="fill: rgb(51, 188, 183); transform-origin: 295.855px 133.625px;" id="eltu3424cxs9k" class="animable"></path><path d="M292.36,138.78a33.54,33.54,0,0,1-1.78,5.67,33.59,33.59,0,0,1-2.27,5.5,34.61,34.61,0,0,1,1.78-5.68A34.79,34.79,0,0,1,292.36,138.78Z" style="fill: rgb(51, 188, 183); transform-origin: 290.335px 144.365px;" id="elo6j0xrdllzp" class="animable"></path><path d="M286.58,151.79c.06.08-1.26.91-3.09,2.59a27.19,27.19,0,0,0-2.95,3.2,31.3,31.3,0,0,0-2.88,4.47,30,30,0,0,0-2,4.94,27.14,27.14,0,0,0-.89,4.26c-.31,2.47-.22,4-.32,4a3.85,3.85,0,0,1-.12-1.08,8.71,8.71,0,0,1,0-1.28c0-.5,0-1.07.09-1.7a25,25,0,0,1,.79-4.35,26.46,26.46,0,0,1,4.94-9.58,25.4,25.4,0,0,1,3.08-3.17,16.57,16.57,0,0,1,1.33-1.06,8.9,8.9,0,0,1,1.06-.73A4.27,4.27,0,0,1,286.58,151.79Z" style="fill: rgb(51, 188, 183); transform-origin: 280.444px 163.52px;" id="eldtmiezd0os" class="animable"></path><path d="M273.73,184.93c.13.06-3.43,7.71-8,17.08s-8.29,16.91-8.42,16.84,3.43-7.7,7.95-17.07S273.6,184.87,273.73,184.93Z" style="fill: rgb(51, 188, 183); transform-origin: 265.52px 201.89px;" id="elc1ifeckvwke" class="animable"></path><path d="M252.11,231.41a24.33,24.33,0,0,1,1.88-4.65,24.81,24.81,0,0,1,2.36-4.43,24.33,24.33,0,0,1-1.88,4.65A24.81,24.81,0,0,1,252.11,231.41Z" style="fill: rgb(51, 188, 183); transform-origin: 254.23px 226.87px;" id="eljduflx9ad5m" class="animable"></path><path d="M264,232.16a3.72,3.72,0,0,1,.1,1.28,23.39,23.39,0,0,1-.56,3.44,10.69,10.69,0,0,0-.24,2.33,24.92,24.92,0,0,0,.38,2.7,7.46,7.46,0,0,1-1.72,6.07,6.86,6.86,0,0,1-1.15,1.08l-.27.21-.13-.32c-1.45-3.86-2.71-7.3-3.6-9.78l-1-2.94a5.14,5.14,0,0,1-.31-1.1,4.49,4.49,0,0,1,.49,1c.32.77.71,1.74,1.18,2.88,1,2.45,2.3,5.87,3.76,9.72l-.4-.11a7.78,7.78,0,0,0,1.07-1,7,7,0,0,0,1.63-5.67,24.78,24.78,0,0,1-.33-2.75,11,11,0,0,1,.31-2.42,31.62,31.62,0,0,0,.72-3.37C264,232.62,263.92,232.17,264,232.16Z" style="fill: rgb(51, 188, 183); transform-origin: 259.809px 240.715px;" id="ely7619pgpd0f" class="animable"></path><path d="M253.43,245.09a6.3,6.3,0,0,1-.73.46l-2.14,1.26-7.93,4.5L216.36,266c-10.24,5.77-19.44,11.12-26,15.13-3.29,2-5.94,3.64-7.76,4.79l-2.11,1.31a4.6,4.6,0,0,1-.75.42,6.2,6.2,0,0,1,.69-.51l2.06-1.39c1.79-1.2,4.41-2.9,7.68-4.93,6.53-4.09,15.7-9.5,25.94-15.27s19.59-10.86,26.35-14.55l8-4.36,2.19-1.17A4.41,4.41,0,0,1,253.43,245.09Z" style="fill: rgb(51, 188, 183); transform-origin: 216.585px 266.37px;" id="eltp1ue84tclc" class="animable"></path><path d="M212,279a22,22,0,0,1,.84-4.67,21.73,21.73,0,0,1,1.34-4.55A42.18,42.18,0,0,1,212,279Z" style="fill: rgb(51, 188, 183); transform-origin: 213.09px 274.39px;" id="eleqf1zflqyz" class="animable"></path><path d="M214.57,277.7a29.16,29.16,0,0,1,1.24-5.34,28.74,28.74,0,0,1,1.75-5.2,56.87,56.87,0,0,1-3,10.54Z" style="fill: rgb(51, 188, 183); transform-origin: 216.06px 272.43px;" id="el38xq9jn5k06" class="animable"></path><path d="M218.82,272.14a29.75,29.75,0,0,1,.53-3.32,29.81,29.81,0,0,1,.4-3.34,7.07,7.07,0,0,1,.11,3.41A6.87,6.87,0,0,1,218.82,272.14Z" style="fill: rgb(51, 188, 183); transform-origin: 219.419px 268.81px;" id="elbztg17sfl9" class="animable"></path><path d="M348,129a82,82,0,0,1-8.42-3.54,79.18,79.18,0,0,1-8.2-4,79.35,79.35,0,0,1,8.42,3.54A79.18,79.18,0,0,1,348,129Z" style="fill: rgb(51, 188, 183); transform-origin: 339.69px 125.23px;" id="elq0qrnspoxjs" class="animable"></path><path d="M365,139.11c-.09.11-.81-.29-1.61-.91s-1.38-1.21-1.29-1.32.81.29,1.61.91S365.13,139,365,139.11Z" style="fill: rgb(51, 188, 183); transform-origin: 363.554px 137.995px;" id="elfxexwe12yg" class="animable"></path><path d="M389.13,216.81a72.81,72.81,0,0,1-6-6.58,75.66,75.66,0,0,1-5.57-6.92,74.61,74.61,0,0,1,6,6.58A80.06,80.06,0,0,1,389.13,216.81Z" style="fill: rgb(51, 188, 183); transform-origin: 383.345px 210.06px;" id="elj2xi62hbe6" class="animable"></path><path d="M389.16,226.11c-.15,0-.15-1.28-.51-2.76s-.92-2.62-.79-2.7a4.63,4.63,0,0,1,1.3,2.58A4.53,4.53,0,0,1,389.16,226.11Z" style="fill: rgb(51, 188, 183); transform-origin: 388.618px 223.38px;" id="elgs2ohsbhkop" class="animable"></path><path d="M373.53,82s0,.09,0,.26a1.75,1.75,0,0,1-.35.68A3.11,3.11,0,0,1,370.63,84a18.32,18.32,0,0,1-3.94-1,4.39,4.39,0,0,0-2.22-.07,7.2,7.2,0,0,0-2.14,1.2,5.72,5.72,0,0,1-2.4,1.13,5.34,5.34,0,0,1-2.45-.32,25.77,25.77,0,0,0-3.74-1.4,3.51,3.51,0,0,0-2.51.4,5.23,5.23,0,0,0-.72.65s.08-.39.61-.81a3.49,3.49,0,0,1,2.68-.61,22.14,22.14,0,0,1,3.83,1.32,4.94,4.94,0,0,0,2.23.26,5.26,5.26,0,0,0,2.17-1,7.63,7.63,0,0,1,2.31-1.26,4.88,4.88,0,0,1,2.47.09,20.11,20.11,0,0,0,3.83,1.09,3,3,0,0,0,2.37-.83A4.24,4.24,0,0,0,373.53,82Z" style="fill: rgb(38, 50, 56); transform-origin: 362.02px 83.6443px;" id="elqx8v8j7zqh" class="animable"></path><path d="M360.49,87.94c.06,0-.61.41-1.57,0a5.31,5.31,0,0,1-1.42-1,5.73,5.73,0,0,0-1.59-1.13,5,5,0,0,0-3.46-.14c-.88.29-1.33.68-1.39.62s.34-.55,1.25-1a4.85,4.85,0,0,1,3.81,0,5.37,5.37,0,0,1,1.71,1.25,6.15,6.15,0,0,0,1.25,1A3.11,3.11,0,0,0,360.49,87.94Z" style="fill: rgb(38, 50, 56); transform-origin: 355.774px 86.5112px;" id="ela9n8tlyecjm" class="animable"></path><path d="M373.17,122.4a25.66,25.66,0,0,1-2.93-1,15.9,15.9,0,0,0-7.23-1.15,8.48,8.48,0,0,0-3.73,1.37,11.59,11.59,0,0,1-3,1.61,3.57,3.57,0,0,1-2.32-.09,1.31,1.31,0,0,1-.68-.52s.26.17.75.33a3.56,3.56,0,0,0,2.15-.08,12,12,0,0,0,2.86-1.66A8.53,8.53,0,0,1,363,119.7a14.83,14.83,0,0,1,7.42,1.32A14.51,14.51,0,0,1,373.17,122.4Z" style="fill: rgb(38, 50, 56); transform-origin: 363.225px 121.517px;" id="elajibt8h54gd" class="animable"></path><path d="M363.8,117.4a11.08,11.08,0,0,1-1.25.25,13.23,13.23,0,0,1-3.08.62,4.85,4.85,0,0,1-3-1.1c-.63-.53-.86-1-.81-1s.39.32,1,.74a5.41,5.41,0,0,0,2.78.87,28.16,28.16,0,0,0,3-.46C363.31,117.18,363.81,117.34,363.8,117.4Z" style="fill: rgb(38, 50, 56); transform-origin: 359.727px 117.22px;" id="eluj8wkr2a8s" class="animable"></path><path d="M357.84,98a7.82,7.82,0,0,1,1.24-1.72l1.46-1.78.88-1a4.81,4.81,0,0,0,.79-1.11.75.75,0,0,0-.22-1,3.9,3.9,0,0,0-1.16-.49,12.76,12.76,0,0,0-2.2-.46c-1.28-.15-2.09-.09-2.1-.17a5,5,0,0,1,2.13-.2,11.47,11.47,0,0,1,2.3.37,4,4,0,0,1,1.34.54,1.28,1.28,0,0,1,.49.72,1.38,1.38,0,0,1-.09.88,5,5,0,0,1-.9,1.24c-.31.35-.6.69-.9,1l-1.54,1.7A9.66,9.66,0,0,1,357.84,98Z" style="fill: rgb(38, 50, 56); transform-origin: 359.677px 94.0164px;" id="elv3me8topsq" class="animable"></path><path d="M327.48,101.79a5,5,0,0,0-.21-2c-.19-.58-.51-1.25-.79-2a3.63,3.63,0,0,1,0-2.81,5.17,5.17,0,0,1,2-1.93c.71-.43,1.36-.78,1.84-1.15a5.39,5.39,0,0,0,1.29-1.47s0,.21-.12.55a3.29,3.29,0,0,1-.94,1.2,15.76,15.76,0,0,1-1.82,1.28,5,5,0,0,0-1.81,1.75,3.24,3.24,0,0,0,0,2.43c.24.77.53,1.48.68,2.1A2.37,2.37,0,0,1,327.48,101.79Z" style="fill: rgb(38, 50, 56); transform-origin: 328.904px 96.11px;" id="elmlrr8o6mp3" class="animable"></path><path d="M357.67,79.4c.05,0,.05.82-.88,1.59a4.33,4.33,0,0,1-1.83.86,9.67,9.67,0,0,1-2.43.12,13.73,13.73,0,0,0-2.33,0,4.81,4.81,0,0,0-1.75.56,4.53,4.53,0,0,0-1.24,1.19c-.06,0,.05-.82,1-1.5a4.8,4.8,0,0,1,1.88-.73,12.07,12.07,0,0,1,2.42-.07,10.81,10.81,0,0,0,2.31-.07,4.47,4.47,0,0,0,1.71-.68C357.45,80.09,357.58,79.36,357.67,79.4Z" style="fill: rgb(38, 50, 56); transform-origin: 352.442px 81.5592px;" id="el1qlhl6siooe" class="animable"></path><path d="M371.15,155.28a18,18,0,0,0,2.53,5.44,6.16,6.16,0,0,0,5.15,2.62c1.46-.13,2.85-1,4.29-.72s2.57,1.52,3.8,2.42c3.2,2.32,7.55,2,11.48,1.54-2.69,3-7.16,4.06-11.18,3.42-2.14-.35-4.23-1.11-6.41-1.14s-4.17.62-6.27.83-4.46-.13-5.84-1.73" style="fill: rgb(38, 50, 56); transform-origin: 383.55px 162.73px;" id="ely5lheraolx" class="animable"></path><path d="M373.77,171.07c2.23,4.42,4.71,9.11,9.06,11.48a8.31,8.31,0,0,1,2.9,2c1.48,2.05,0,4.89.16,7.41s2.12,4.59,3.47,6.77,2,5.38.06,7" style="fill: rgb(38, 50, 56); transform-origin: 382.204px 188.4px;" id="eln8djfcddunf" class="animable"></path><polygon points="415.87 192.94 403.35 161.28 409.42 157.46 415.87 173.81 415.87 192.94" style="fill: rgb(38, 50, 56); transform-origin: 409.61px 175.2px;" id="elh0gehaw0dz" class="animable"></polygon><polygon points="480.16 291.16 483.05 159.95 468.22 146.16 479.03 142.43 485.34 151.79 501.77 80.55 499.07 43.33 509.04 43.38 509.04 291.16 480.16 291.16" style="fill: rgb(38, 50, 56); transform-origin: 488.63px 167.245px;" id="el9id0ka4nn1b" class="animable"></polygon><polygon points="306.93 224.38 292.66 230.48 278.01 272.43 292.36 283.35 306.93 224.38" style="fill: rgb(38, 50, 56); transform-origin: 292.47px 253.865px;" id="elyrjtdwwz2qp" class="animable"></polygon><circle cx="463.51" cy="245.06" r="38.37" style="fill: rgb(235, 235, 235); transform-origin: 463.51px 245.06px;" id="el4p1it76hft" class="animable"></circle><path d="M425.88,237.56l7.36-2.33a12.37,12.37,0,0,0,5.93-4.06c2.08-2.6,4.79-6,4.93-6.29.23-.46,16.74-2.62,21.89-5.7,4.84-2.89,1.15-11.3.52-12.37q-1.49-.12-3-.12A38.37,38.37,0,0,0,425.88,237.56Z" style="fill: rgb(224, 224, 224); transform-origin: 447.164px 222.125px;" id="el8lrns4bsqmt" class="animable"></path><path d="M492.05,252.78l9.81-9A38.21,38.21,0,0,0,495,223.07l-3.7,6.36-15.6,11.28-30.75-1.58L425.53,250.5a38.34,38.34,0,0,0,15.83,25.88c2.84-1.87,6.16-4.2,6.73-5.15,1-1.71,19.82-10.25,19.82-10.25Z" style="fill: rgb(224, 224, 224); transform-origin: 463.695px 249.725px;" id="elz6hqg50mxfs" class="animable"></path><g id="elfpx1clftvsk"><g style="opacity: 0.5; transform-origin: 463.415px 225.725px;" class="animable"><path d="M463.82,244.74l-28.57-25.6a41.2,41.2,0,0,1,29.62-12.43c15.88,0,26.71,11.89,26.71,11.89Z" style="fill: rgb(255, 255, 255); transform-origin: 463.415px 225.725px;" id="elyhjfo400b6p" class="animable"></path></g></g><path d="M463.41,239.57,461.23,243a4,4,0,0,0-.65,2,3.75,3.75,0,0,0,0,.58,2.55,2.55,0,0,0,2.91,2.38,2.5,2.5,0,0,0,2.74-2.61,6.59,6.59,0,0,0-1.2-3.26Z" style="fill: rgb(51, 188, 183); transform-origin: 463.401px 243.778px;" id="el05u798mvmht" class="animable"></path><path d="M501.88,245.06s0-.21-.06-.63-.07-1-.12-1.82c0-.4-.05-.84-.08-1.34s-.16-1-.24-1.6-.19-1.2-.3-1.87-.33-1.35-.5-2.09a36.61,36.61,0,0,0-4.25-10.17,38.08,38.08,0,0,0-9.72-10.83L485,213.48c-.58-.38-1.19-.73-1.79-1.1s-1.2-.78-1.87-1.08l-2-1-1-.48-1.06-.38-2.15-.78c-.73-.24-1.49-.4-2.25-.61a19.37,19.37,0,0,0-2.31-.52,34.5,34.5,0,0,0-4.82-.55c-.82,0-1.65-.11-2.49-.1l-2.52.13c-.42,0-.85,0-1.27.08l-1.28.2c-.84.14-1.71.24-2.56.42a39.78,39.78,0,0,0-5.09,1.49,41,41,0,0,0-5,2.18c-.8.44-1.57.95-2.37,1.42-.39.25-.81.46-1.18.75l-1.12.84a42.58,42.58,0,0,0-4.32,3.67,43,43,0,0,0-3.74,4.42l-.88,1.17-.76,1.26-.77,1.26a8.58,8.58,0,0,0-.71,1.3l-1.29,2.69c-.35.93-.69,1.87-1,2.82a37.87,37.87,0,0,0,0,24c.35.94.69,1.88,1,2.82s.87,1.8,1.3,2.69a9.66,9.66,0,0,0,.71,1.3l.77,1.26.76,1.26.88,1.17a34.4,34.4,0,0,0,8.06,8.09l1.12.84c.37.29.79.5,1.18.75.8.47,1.57,1,2.37,1.42a42.36,42.36,0,0,0,10.06,3.68c.85.17,1.72.27,2.56.41l1.28.2c.42,0,.85,0,1.27.08l2.52.13c.84,0,1.67-.07,2.49-.09a36.07,36.07,0,0,0,4.82-.56,19.37,19.37,0,0,0,2.31-.52c.76-.21,1.52-.36,2.25-.61l2.15-.78,1.06-.38,1-.48,2-.95c.66-.3,1.24-.73,1.86-1.08s1.21-.72,1.79-1.1l1.66-1.23a37.89,37.89,0,0,0,9.71-10.83,36.61,36.61,0,0,0,4.25-10.17c.17-.74.42-1.42.5-2.09s.21-1.29.3-1.87.19-1.11.24-1.6.06-.94.08-1.34c.05-.79.09-1.39.12-1.82s.06-.62.06-.62,0,.21,0,.62,0,1-.06,1.82q0,.62-.06,1.35c0,.49-.14,1-.22,1.61s-.18,1.21-.27,1.88-.32,1.36-.48,2.11a36.42,36.42,0,0,1-4.2,10.27,38.27,38.27,0,0,1-9.74,11l-1.66,1.24c-.59.39-1.2.75-1.81,1.12s-1.21.79-1.88,1.1l-2,1-1,.49-1.07.39-2.17.8c-.74.25-1.51.41-2.27.62a18.06,18.06,0,0,1-2.34.53,35.22,35.22,0,0,1-4.87.58c-.83,0-1.67.11-2.52.1l-2.55-.12c-.43,0-.86,0-1.29-.08l-1.29-.2c-.86-.14-1.73-.24-2.6-.41a43,43,0,0,1-10.19-3.71c-.81-.44-1.6-1-2.41-1.43-.39-.26-.81-.47-1.19-.76l-1.14-.85a42.47,42.47,0,0,1-4.38-3.72,43,43,0,0,1-3.79-4.47l-.89-1.19-.78-1.27-.78-1.28a10.38,10.38,0,0,1-.72-1.31c-.43-.91-.87-1.82-1.31-2.73l-1.05-2.86a38.33,38.33,0,0,1,0-24.38l1.05-2.86,1.31-2.72A9.42,9.42,0,0,1,430,226l.77-1.28.78-1.27.89-1.18a44.17,44.17,0,0,1,3.79-4.48,43.65,43.65,0,0,1,4.38-3.71l1.14-.85c.38-.29.8-.5,1.2-.76.8-.47,1.59-1,2.4-1.43a42.41,42.41,0,0,1,10.19-3.7c.87-.18,1.74-.28,2.6-.42l1.29-.2c.43-.05.86-.05,1.29-.08l2.55-.12c.84,0,1.68.07,2.52.1a35.22,35.22,0,0,1,4.87.58,20.34,20.34,0,0,1,2.34.53c.76.21,1.53.37,2.27.62l2.16.8,1.07.39,1,.49,2,1c.67.31,1.25.74,1.88,1.1s1.22.73,1.8,1.12l1.67,1.24a38.42,38.42,0,0,1,9.74,11,36.42,36.42,0,0,1,4.2,10.27c.16.75.4,1.43.48,2.11s.19,1.3.27,1.88.18,1.12.22,1.61,0,.94.06,1.35c0,.79.05,1.39.06,1.82S501.88,245.06,501.88,245.06Z" style="fill: rgb(38, 50, 56); transform-origin: 463.405px 245.055px;" id="els9l8ormhom" class="animable"></path><path d="M450.06,281s6.37-7.37,9.06-9.83,18.35-9.29,18.69-9.29,22.74-6.79,22.74-6.79-3.29,15.37-17.71,23.11A38.15,38.15,0,0,1,450.06,281Z" style="fill: rgb(224, 224, 224); transform-origin: 475.305px 269.272px;" id="ell8g0vvl6bh7" class="animable"></path><polygon points="175.23 66.14 251.75 66.14 260.21 58.06 176.47 58.06 173.69 62.1 175.23 66.14" style="fill: rgb(51, 188, 183); transform-origin: 216.95px 62.1px;" id="eljb7nkw1bjza" class="animable"></polygon><path d="M175.23,66.14a1.47,1.47,0,0,1-.11-.24l-.31-.75-1.2-3v0l0,0,2.75-4,0,0h.06c14.36-.09,45.42-.15,81.37-.15h3l-.47.45-8.46,8.07-.07.07h-.11l-54.61-.1L181,66.22l-4.32,0-1.12,0-.36,0a1.65,1.65,0,0,1,.39,0l1.14,0,4.37,0L197.28,66l54.47-.1-.17.07L260,57.87l.17.45h-2.37c-35.95,0-67-.06-81.37-.15l.09,0-2.81,4v-.07c.48,1.31.85,2.32,1.1,3l.28.77C175.2,66,175.23,66.13,175.23,66.14Z" style="fill: rgb(38, 50, 56); transform-origin: 217.2px 62.23px;" id="elms21nejdone" class="animable"></path><g id="ely903hi602hj"><circle cx="164.78" cy="61.71" r="12.24" style="fill: rgb(38, 50, 56); transform-origin: 164.78px 61.71px; transform: rotate(-45deg);" class="animable"></circle></g><g id="elmpkrny6bvbk"><g style="opacity: 0.3; transform-origin: 223.035px 62.1px;" class="animable"><polygon points="223.16 58.06 217.9 66.14 222.49 66.14 228.17 58.06 223.16 58.06" style="fill: rgb(255, 255, 255); transform-origin: 223.035px 62.1px;" id="el001binu2nwmj2g" class="animable"></polygon></g></g><g id="elnil12x053jn"><g style="opacity: 0.3; transform-origin: 216.95px 62.1px;" class="animable"><polygon points="218.05 58.06 212.79 66.14 215.49 66.14 221.11 58.06 218.05 58.06" style="fill: rgb(255, 255, 255); transform-origin: 216.95px 62.1px;" id="elbayw2kvx1me" class="animable"></polygon></g></g><path d="M172.87,59.88a5.2,5.2,0,0,0-1.31-2.8,4.91,4.91,0,0,0-2.58-1.6,4.1,4.1,0,0,0-3.12.6,4,4,0,0,0-1.28,1.44,4,4,0,0,0-4.31-1.91,4.9,4.9,0,0,0-2.58,1.57,5.24,5.24,0,0,0-1.34,2.8,6.32,6.32,0,0,0,.77,3.86,8.89,8.89,0,0,0,3,2.87c2,1.21,4.62,2.73,4.62,2.73S167,67.78,169,66.59a8.93,8.93,0,0,0,3.07-2.85A6.32,6.32,0,0,0,172.87,59.88Z" style="fill: rgb(224, 224, 224); transform-origin: 164.607px 62.4159px;" id="el01q4prlzzi5u" class="animable"></path><path d="M164.78,69.47h0s-2.65-1.53-4.62-2.73a8.87,8.87,0,0,1-3.05-2.88,6.29,6.29,0,0,1-.77-3.88,5.19,5.19,0,0,1,1.34-2.8,5,5,0,0,1,2.6-1.59,4.11,4.11,0,0,1,3.14.63,4,4,0,0,1,1.17,1.26,4.08,4.08,0,0,1,1.26-1.41,4.12,4.12,0,0,1,3.15-.6,5.1,5.1,0,0,1,2.59,1.6,5.15,5.15,0,0,1,1.31,2.82h0a6.21,6.21,0,0,1-.79,3.87A8.85,8.85,0,0,1,169,66.61c-2,1.18-4.2,2.83-4.22,2.85Zm-3.69-13.92a3.65,3.65,0,0,0-.81.08,5,5,0,0,0-2.57,1.57A5,5,0,0,0,156.38,60a6.24,6.24,0,0,0,.76,3.84,8.81,8.81,0,0,0,3,2.87c1.89,1.15,4.39,2.6,4.6,2.72.19-.14,2.32-1.71,4.22-2.84a8.71,8.71,0,0,0,3.05-2.85,6.07,6.07,0,0,0,.79-3.83h0a5.12,5.12,0,0,0-1.3-2.79A4.94,4.94,0,0,0,169,55.51a4.06,4.06,0,0,0-3.11.59,4.17,4.17,0,0,0-1.27,1.43l0,0,0,0a4.14,4.14,0,0,0-1.18-1.28A4,4,0,0,0,161.09,55.55Z" style="fill: rgb(38, 50, 56); transform-origin: 164.619px 62.4241px;" id="elyzkrhoirf" class="animable"></path><path d="M509,291.16c0-1.71-.08-96.92-.21-247.78l.21.21-364.36,0h0l.26-.26c0,88.39,0,172.39,0,247.78l-.23-.24,364.38.24-364.38.24h-.24v-.24c0-75.39,0-159.39,0-247.78v-.26h.29L509,43.17h.21v.21C509.12,194.24,509,289.45,509,291.16Z" style="fill: rgb(38, 50, 56); transform-origin: 326.82px 167.21px;" id="el8rhsisqm9y" class="animable"></path></g><g id="freepik--speech-bubble--inject-28" class="animable" style="transform-origin: 677.18px 198.035px;"><polygon points="680.44 174.48 694.47 160.83 698.69 181.67 715.68 182.64 707 198.34 719.25 212.58 700.6 216.82 694.97 235.2 677.29 224.77 659.01 232.4 658.13 212.08 635.33 212.12 655.02 196.49 645.87 180.02 664.22 182.06 664.07 162.73 680.44 174.48" style="fill: rgb(255, 255, 255); transform-origin: 677.29px 198.015px;" id="elkitj812jqa" class="animable"></polygon><path d="M680.44,174.48s-.37-.24-1.08-.74l-3.18-2.24L664,162.83l.2-.1c.06,5.37.12,11.9.2,19.33v.19l-.19,0-18.36-2,.2-.3,9.18,16.46.09.17-.15.11-19.68,15.65-.15-.44,22.8,0h.24v.24c.29,6.48.58,13.34.89,20.32l-.36-.23,13-5.43,5.28-2.2.12-.05.11.07L695.1,235l-.38.14q2.89-9.41,5.64-18.37l0-.14.14,0,18.65-4.23-.13.38-12.24-14.24-.1-.12.08-.13,8.69-15.7.17.3-17-1h-.14l0-.13q-2.46-12.32-4.17-20.86l.2.06L684.05,171l-2.7,2.59c-.6.58-.91.85-.91.85s.3-.32.9-.92,1.51-1.48,2.68-2.64l10.36-10.18.16-.16.05.22q1.74,8.53,4.27,20.84l-.16-.14,17,.94H716l-.16.28-8.66,15.72,0-.25,12.26,14.22.26.3-.39.09-18.64,4.26.18-.17c-1.83,6-3.71,12.1-5.63,18.37l-.09.31-.28-.16q-8.67-5.1-17.68-10.43l.23,0-5.28,2.2-13,5.43-.34.14,0-.37c-.3-7-.6-13.83-.87-20.32l.25.25-22.8,0h-.7l.55-.43c6.93-5.49,13.56-10.75,19.71-15.61l-.06.28-9.14-16.48-.19-.34.39,0,18.35,2.07-.19.17c0-7.43-.08-14-.11-19.33v-.25l.2.14,12.06,8.75,3.16,2.3Z" style="fill: rgb(38, 50, 56); transform-origin: 677.18px 198.035px;" id="elifoecnlh7c" class="animable"></path><path d="M686.19,184.09l-1,17.39a2.82,2.82,0,0,1-2.64,2.65h0a2.81,2.81,0,0,1-3-2.49l-2-17.48a2.21,2.21,0,0,1,2.22-2.46l4.25,0A2.22,2.22,0,0,1,686.19,184.09Z" style="fill: rgb(51, 188, 183); transform-origin: 681.866px 192.919px;" id="elt92muxm70ek" class="animable"></path><path d="M677.94,213.93a4.24,4.24,0,1,0,2.67-5.38A4.24,4.24,0,0,0,677.94,213.93Z" style="fill: rgb(51, 188, 183); transform-origin: 681.956px 212.571px;" id="elo978s65v6j" class="animable"></path></g><g id="freepik--Character--inject-28" class="animable" style="transform-origin: 500.54px 337.066px;"><path d="M421.71,316.7a2.63,2.63,0,0,0-2.22-.34,6.51,6.51,0,0,0-2.05,1.08,26.33,26.33,0,0,0-2.41,1.95,2.92,2.92,0,0,0-.94,1.29,1.06,1.06,0,0,0,.62,1.31,1.54,1.54,0,0,0,1.12-.31,38.14,38.14,0,0,0,5.94-4.39" style="fill: rgb(38, 50, 56); transform-origin: 417.905px 319.126px;" id="el6fta4154vut" class="animable"></path><path d="M442.13,311.93a2.64,2.64,0,0,0-1.88-1.24,6.44,6.44,0,0,0-2.31.14,24,24,0,0,0-3,.77,2.87,2.87,0,0,0-1.39.78,1.06,1.06,0,0,0,0,1.45,1.51,1.51,0,0,0,1.15.18,37.12,37.12,0,0,0,7.22-1.53" style="fill: rgb(38, 50, 56); transform-origin: 437.697px 312.349px;" id="el4shv9qrpkh9" class="animable"></path><polygon points="484.86 323.95 511.41 327.72 546.8 312.78 554.18 334.41 513.22 350.3 471.61 336.66 484.86 323.95" style="fill: rgb(255, 191, 157); transform-origin: 512.895px 331.54px;" id="ele7r9xmnsqtv" class="animable"></polygon><path d="M537.79,321.49l-3-6.05s40.51-17.42,39.93-17.23-34.08,25.56-34.08,25.56Z" style="fill: rgb(51, 188, 183); transform-origin: 554.758px 310.989px;" id="elbyuu0c2zxh5" class="animable"></path><path d="M484.86,324s-8.05-13.48-9.93-14.7-18.16-5.69-19.48-5.16-20.18,5.41-17.79,7.5,15.53-1.49,15.53-1.49l1.87.74s-11.38,2.8-13.69,4.41c-2.13,1.48-1.14,4.15,1,3.76s11.95-3.18,12.58-2.81-10.67,3.61-11.85,4.44c-1.58,1.13-1.5,4.1.59,3.78,1.23-.19,11.84-3.89,11.84-3.89s-8.32,4-9.05,4.85c-1.2,1.34,0,3.12,1.81,2.56,1.26-.39,7.09-3.8,8.77-4.31,0,0,1.64.29,3.36,3.41s17.47,16.5,17.47,16.5Z" style="fill: rgb(255, 191, 157); transform-origin: 461.155px 323.843px;" id="elbjuy5f63ykj" class="animable"></path><path d="M475.35,323.26a6.3,6.3,0,0,0-2.06-2.57C457.9,309.2,437,308.82,419.83,317.1a14.32,14.32,0,0,0-7,8c-1.08,3.29.18,7.33,3.55,6.52L438,341.34a8.49,8.49,0,0,0,1.55.32c5.92.83,10.94-3.78,11.37-9.75.28-3.69,5.11-4.16,9.76-3.58,2.23.28,7.76,1.06,10,.91C473.6,329.05,476.81,326.78,475.35,323.26Z" style="fill: rgb(51, 188, 183); transform-origin: 444.084px 326.582px;" id="elog6lblixjsq" class="animable"></path><ellipse cx="458.61" cy="321.42" rx="4.28" ry="1.41" style="fill: rgb(38, 50, 56); transform-origin: 458.61px 321.42px;" id="el8hahltba4bp" class="animable"></ellipse><ellipse cx="458.61" cy="318.25" rx="4.28" ry="1.65" style="fill: rgb(38, 50, 56); transform-origin: 458.61px 318.25px;" id="elr3hc5hollom" class="animable"></ellipse><polygon points="460.56 321.59 457.24 321.5 457.24 318.36 460.56 318.45 460.56 321.59" style="fill: rgb(38, 50, 56); transform-origin: 458.9px 319.975px;" id="eldmm2gqiv68" class="animable"></polygon><path d="M462.83,318.51c0,.05-.31.44-1,.82a7.32,7.32,0,0,1-3.08.8,6.64,6.64,0,0,1-3.13-.59c-.75-.37-1.1-.76-1.06-.8s.47.2,1.2.46a8.08,8.08,0,0,0,3,.41,9.47,9.47,0,0,0,2.95-.61C462.36,318.72,462.77,318.44,462.83,318.51Z" style="fill: rgb(69, 90, 100); transform-origin: 458.693px 319.32px;" id="eljwbli4splp" class="animable"></path><path d="M457.21,321.3c-.14,0-.26-.31-.26-.71s.12-.7.26-.7.26.31.26.7S457.36,321.3,457.21,321.3Z" style="fill: rgb(69, 90, 100); transform-origin: 457.21px 320.595px;" id="el548s2loogws" class="animable"></path><path d="M460.44,321.18c-.15,0-.26-.31-.26-.7s.11-.71.26-.71.26.32.26.71S460.58,321.18,460.44,321.18Z" style="fill: rgb(69, 90, 100); transform-origin: 460.44px 320.475px;" id="elfvbghd0ckc9" class="animable"></path><path d="M442,327.33c0,.78-1.91,1.42-4.28,1.42s-4.28-.64-4.28-1.42,1.91-1.41,4.28-1.41S442,326.55,442,327.33Z" style="fill: rgb(38, 50, 56); transform-origin: 437.72px 327.335px;" id="elofqyjr9t3np" class="animable"></path><path d="M442,324.16c0,.91-1.91,1.65-4.28,1.65s-4.28-.74-4.28-1.65,1.91-1.65,4.28-1.65S442,323.25,442,324.16Z" style="fill: rgb(38, 50, 56); transform-origin: 437.72px 324.16px;" id="elbuci400preb" class="animable"></path><polygon points="439.65 327.51 436.33 327.42 436.33 324.27 439.65 324.36 439.65 327.51" style="fill: rgb(38, 50, 56); transform-origin: 437.99px 325.89px;" id="elnn3qqvx39m" class="animable"></polygon><path d="M441.91,324.42c0,.05-.3.44-1,.83a7.48,7.48,0,0,1-3.08.79,6.72,6.72,0,0,1-3.14-.59c-.74-.36-1.09-.75-1.05-.8s.46.21,1.19.46a8.14,8.14,0,0,0,3,.41,9.19,9.19,0,0,0,3-.61A7.71,7.71,0,0,1,441.91,324.42Z" style="fill: rgb(69, 90, 100); transform-origin: 437.773px 325.235px;" id="eltwr05bq1ahq" class="animable"></path><path d="M436.3,327.22c-.14,0-.26-.32-.26-.71s.12-.71.26-.71.26.32.26.71S436.45,327.22,436.3,327.22Z" style="fill: rgb(69, 90, 100); transform-origin: 436.3px 326.51px;" id="elggsc3nceknv" class="animable"></path><path d="M439.52,327.1c-.14,0-.26-.32-.26-.71s.12-.71.26-.71.26.32.26.71S439.67,327.1,439.52,327.1Z" style="fill: rgb(69, 90, 100); transform-origin: 439.52px 326.39px;" id="el4swefom8hy8" class="animable"></path><path d="M480.5,324.51c-1.08,1.19-3,1.08-4.45.37s-2.58-1.88-4-2.69c-4.12-2.41-9.68-1.29-13.68-3.91-.56-.36-1.13-1-.89-1.61s1-.7,1.58-.74l15.8-.93" style="fill: rgb(255, 191, 157); transform-origin: 468.962px 320.205px;" id="elxqxj8sjbkw" class="animable"></path><path d="M474.9,315a5.92,5.92,0,0,0-1.72-.08c-1.1,0-2.7.06-4.67.14l-6.91.31-2,.1a3.15,3.15,0,0,0-2.28.68,1.34,1.34,0,0,0-.13,1.49,2.69,2.69,0,0,0,.88.95,10.19,10.19,0,0,0,2.08,1.06c3,1.07,5.88,1.07,8.36,1.65a11.91,11.91,0,0,1,3.36,1.2c1,.55,1.8,1.24,2.63,1.8a5.57,5.57,0,0,0,4.56,1.2c1.15-.32,1.48-1,1.44-1a4.57,4.57,0,0,1-1.51.65,5.39,5.39,0,0,1-4.12-1.38c-.78-.57-1.59-1.3-2.62-1.93a12.47,12.47,0,0,0-3.55-1.36c-2.58-.64-5.51-.68-8.23-1.69a9.52,9.52,0,0,1-1.89-.94c-.54-.37-.84-.91-.58-1.14s1-.35,1.65-.39l2-.13,6.9-.51c2-.15,3.55-.3,4.65-.42A6.76,6.76,0,0,0,474.9,315Z" style="fill: rgb(255, 154, 108); transform-origin: 468.763px 320.24px;" id="el56kupkg9g29" class="animable"></path><path d="M437.7,311.64a9.16,9.16,0,0,0,3.57.67,20.57,20.57,0,0,0,4-.17c1.45-.28,3-.64,4.69-1l3.53-.82h-.22c4.86,1.29,8.41,2.1,8.47,1.9s-3.4-1.33-8.25-2.73l-.09,0-.12,0-3.51.77-4.63,1.08a25.75,25.75,0,0,1-3.82.35C439.09,311.7,437.72,311.5,437.7,311.64Z" style="fill: rgb(255, 154, 108); transform-origin: 449.72px 310.916px;" id="elm2gr5sxrx5j" class="animable"></path><path d="M587.74,289.36a1.16,1.16,0,0,1-.25.15l-.77.4-3,1.51-10.89,5.44a42.11,42.11,0,0,0-7.23,4.21l-7.9,5.54-18.14,12.65-11,7.63.05-.36,18.59,24.94c2.28,3.09,4.11,5.57,5.39,7.32.61.83,1.08,1.49,1.43,2l.36.52c.08.12.12.18.11.18s-.05,0-.15-.16l-.39-.49-1.5-1.92L547,351.66,528.3,326.83l-.16-.21.22-.15,10.95-7.63,18.16-12.63,7.94-5.49a41.56,41.56,0,0,1,7.31-4.19l11-5.3,3-1.41.78-.36A1.27,1.27,0,0,1,587.74,289.36Z" style="fill: rgb(38, 50, 56); transform-origin: 557.94px 325.425px;" id="elclb3sg5dc4u" class="animable"></path><g id="el1hqtx8w1ozph"><g style="opacity: 0.3; transform-origin: 437.461px 317.178px;" class="animable"><path d="M427.38,316.45a1,1,0,0,0-.16,1.87c2.27,1.14,5.67,2.74,7.1,2.86,2.23.21,13.65-2.57,13.95-3.42s-7.55-4.77-9.3-4.59C437.71,313.3,431,315.33,427.38,316.45Z" id="elzkivbdh22xq" class="animable" style="transform-origin: 437.461px 317.178px;"></path></g></g><path d="M598.77,194.73a7,7,0,0,0-7.29-3.39,9.51,9.51,0,0,0-11.69.46,8.45,8.45,0,0,0-12.6,7.17,7.07,7.07,0,0,0-5.93,12,6.78,6.78,0,0,0,3.13,13.13l33.28-21.44A7,7,0,0,0,598.77,194.73Z" style="fill: rgb(38, 50, 56); transform-origin: 578.104px 206.859px;" id="elw3x7nq6cs" class="animable"></path><path d="M563.42,225.1A28.8,28.8,0,0,1,591.58,198l1.49,0c16.09.61,24.57,14.62,23.51,30.69v60.63l1.66,6-18.46,19.81-24-10.36,4.48-9.61-2.16-15.73s-15.51-2.08-16-17.53C561.84,254.44,562.59,239,563.42,225.1Z" style="fill: rgb(255, 191, 157); transform-origin: 590.144px 256.565px;" id="elf3t2zmvbsvk" class="animable"></path><path d="M578.1,279.43a37.22,37.22,0,0,0,20-6.36s-3.74,13.29-19.19,12.22Z" style="fill: rgb(255, 154, 108); transform-origin: 588.1px 279.211px;" id="elgqhs9ygaeoj" class="animable"></path><path d="M568.23,238.17a2.22,2.22,0,0,0,2.18,2.19,2.11,2.11,0,0,0,2.23-2,2.21,2.21,0,0,0-2.17-2.18A2.11,2.11,0,0,0,568.23,238.17Z" style="fill: rgb(38, 50, 56); transform-origin: 570.435px 238.27px;" id="el9x25e8ebvh6" class="animable"></path><path d="M566.9,232.6c.28.28,1.93-1,4.3-1s4.14,1.11,4.39.82c.12-.13-.16-.65-.93-1.18a6,6,0,0,0-3.53-1,5.81,5.81,0,0,0-3.41,1.18C567,231.94,566.76,232.47,566.9,232.6Z" style="fill: rgb(38, 50, 56); transform-origin: 571.239px 231.438px;" id="elmg4dl92kwsc" class="animable"></path><path d="M589,238.84a2.2,2.2,0,0,0,2.17,2.18,2.11,2.11,0,0,0,2.23-2,2.2,2.2,0,0,0-2.17-2.19A2.1,2.1,0,0,0,589,238.84Z" style="fill: rgb(38, 50, 56); transform-origin: 591.2px 238.925px;" id="ela38y3ewepd" class="animable"></path><path d="M590.25,232.56c.28.28,1.93-1,4.3-1s4.14,1.11,4.39.81c.12-.13-.16-.64-.94-1.18a6.11,6.11,0,0,0-3.52-1,5.81,5.81,0,0,0-3.41,1.18C590.35,231.91,590.11,232.43,590.25,232.56Z" style="fill: rgb(38, 50, 56); transform-origin: 594.589px 231.394px;" id="elsyac5o6chz" class="animable"></path><path d="M582,250.35c0-.14-1.47-.36-3.87-.62-.61,0-1.18-.16-1.29-.57a3,3,0,0,1,.36-1.81l1.7-4.65c2.36-6.63,4.05-12.07,3.78-12.16s-2.39,5.2-4.75,11.83q-.84,2.44-1.62,4.68a3.57,3.57,0,0,0-.27,2.38,1.56,1.56,0,0,0,1,.87,4,4,0,0,0,1,.12A16,16,0,0,0,582,250.35Z" style="fill: rgb(38, 50, 56); transform-origin: 579.328px 240.525px;" id="eleyqguyb1wqf" class="animable"></path><path d="M600,227.56c-.17-.66-2.3-.5-4.76-1s-4.41-1.4-4.78-.84c-.16.26.15.89.91,1.57a7.54,7.54,0,0,0,3.48,1.65,7.27,7.27,0,0,0,3.78-.24C599.56,228.35,600.05,227.87,600,227.56Z" style="fill: rgb(38, 50, 56); transform-origin: 595.211px 227.314px;" id="el638xh3nuzgj" class="animable"></path><path d="M575.7,227.07c-.51-.54-2.46,0-4.82.08s-4.36-.34-4.81.23c-.2.27.12.81,1,1.32a8.14,8.14,0,0,0,7.76-.25C575.65,227.89,575.92,227.33,575.7,227.07Z" style="fill: rgb(38, 50, 56); transform-origin: 570.893px 228.198px;" id="elilzttqlxktf" class="animable"></path><path d="M564.76,218s3.88-9.76,8.5-12.12c5.59-2.84,8.15,3.31,13.5,1.69s10.69-4.35,16.28-.3c6.12,4.43,3.36,7.69,3.87,14.53,2.08,27.77,7.32,35.52,8.49,22.4.13-1.44,4.09-2.66,4.55-8.73.61-7.87.71-17.42-1.15-23-1.58-4.67-4.32-7.86-9.2-11.35-7.7-5.49-18.13-5.4-25.19-4.54S563.87,205.89,564.76,218Z" style="fill: rgb(38, 50, 56); transform-origin: 592.532px 223.278px;" id="el3hesgkfo083" class="animable"></path><path d="M614.41,243.79a4.18,4.18,0,0,1,4.44-4.13c2.89.21,6.13,1.78,6.06,7.74-.12,10.57-10.71,8.27-10.72,8S614.32,248.21,614.41,243.79Z" style="fill: rgb(255, 191, 157); transform-origin: 619.55px 247.723px;" id="elyiouk3mfrv" class="animable"></path><path d="M616.54,251.42s.18.13.49.27a1.83,1.83,0,0,0,1.37.05c1.13-.4,2.09-2.16,2.16-4.07a5.93,5.93,0,0,0-.49-2.64,2.11,2.11,0,0,0-1.36-1.43,1,1,0,0,0-1.1.49c-.14.3-.08.51-.13.53s-.23-.18-.14-.62a1.19,1.19,0,0,1,.42-.66,1.4,1.4,0,0,1,1-.25,2.56,2.56,0,0,1,1.9,1.66,6.27,6.27,0,0,1,.61,2.95c-.1,2.13-1.21,4.11-2.74,4.53a2,2,0,0,1-1.68-.29C616.55,251.67,616.5,251.43,616.54,251.42Z" style="fill: rgb(255, 154, 108); transform-origin: 618.901px 247.69px;" id="el2g3mz6o1oif" class="animable"></path><path d="M613.78,223.33a10.09,10.09,0,0,1-4.43,2.16c-1.65.19-3.56-.72-3.87-2.35-.14-.73,0-1.59-.47-2.15s-1.65-.43-2.54-.32c-3.06.39-6.72-2.93-7.56-5.9a2.76,2.76,0,0,1-3.67.84,10,10,0,0,1-2.59-2.21c-.95-1-2.27-2-3.67-1.74a9.84,9.84,0,0,1-2.28.55c-1.39-.09-2.1-1.7-2.34-3.07s-.44-3-1.63-3.7-2.5-.25-3.77,0-2.93,0-3.29-1.29a2.54,2.54,0,0,1,.44-1.93,6.85,6.85,0,0,1,8-2.76,9.27,9.27,0,0,1,17-2.14,9.41,9.41,0,0,1,15.11,3.12,6.83,6.83,0,0,1,7.9,9.77c1.92,1,3.58,2.9,3.67,5.08s-2,4.41-4.13,3.88a3.78,3.78,0,0,1-6.45,3.9" style="fill: rgb(38, 50, 56); transform-origin: 597.712px 209.074px;" id="eltq60qjdw7o" class="animable"></path><path d="M579.41,202.56s0,.06,0,.19a4,4,0,0,0,.07.56,6.65,6.65,0,0,0,.81,2,7.48,7.48,0,0,0,2.4,2.45,7,7,0,0,0,4.35,1.15l-.19-.23a3.86,3.86,0,0,0,.28,2.91,10.59,10.59,0,0,0,1.86,2.56,7.51,7.51,0,0,0,1.2,1.19,3.76,3.76,0,0,0,1.69.59,3.89,3.89,0,0,0,3.38-1.29l-.4-.11a8,8,0,0,0,3.47,5.42,5.79,5.79,0,0,0,3.49,1.06,10.28,10.28,0,0,0,3.41-.82l-.29-.12a8.26,8.26,0,0,0,2.57,3.21,4.43,4.43,0,0,0,3.7.93,5.84,5.84,0,0,0,4.39-4.65l-.24.12a5.42,5.42,0,0,0,3.64.46,6,6,0,0,0,2.51-1.18,5,5,0,0,0,1.15-1.32,2.67,2.67,0,0,0,.26-.55,6.17,6.17,0,0,1-1.52,1.73,5.86,5.86,0,0,1-2.45,1.07,5.28,5.28,0,0,1-3.44-.49l-.2-.11,0,.22a5.49,5.49,0,0,1-4.16,4.31,4,4,0,0,1-3.36-.88,7.93,7.93,0,0,1-2.41-3.05l-.09-.19-.19.07a9.92,9.92,0,0,1-3.26.79,5.36,5.36,0,0,1-3.22-1,7.49,7.49,0,0,1-3.29-5.1l-.07-.5-.32.4a3.43,3.43,0,0,1-3,1.13,3.22,3.22,0,0,1-1.49-.5,8,8,0,0,1-1.14-1.12,10.89,10.89,0,0,1-1.82-2.45,3.5,3.5,0,0,1-.28-2.63l.08-.25-.26,0a6.83,6.83,0,0,1-4.17-1,7.66,7.66,0,0,1-2.38-2.32A8.2,8.2,0,0,1,579.41,202.56Z" style="fill: rgb(69, 90, 100); transform-origin: 601.165px 213.429px;" id="elw5w8k4fqtx9" class="animable"></path><path d="M587.88,255.61a4.42,4.42,0,0,0-1.29-1.26,4.07,4.07,0,0,0-3.28-.22,6.43,6.43,0,0,0-2.55,1.67c-1.24,1.29-.84,2.61-.37,5.6,3-.59,6,0,8.76-1.18A7.2,7.2,0,0,0,587.88,255.61Z" style="fill: rgb(255, 154, 108); transform-origin: 584.551px 257.643px;" id="el1bytypzhyvw" class="animable"></path><path d="M580.74,255.45l0,0h0Z" style="fill: rgb(255, 154, 108); transform-origin: 580.74px 255.45px;" id="elj1w82q6wtte" class="animable"></path><path d="M580.39,261.4a12.07,12.07,0,0,1,3.38-.61c1.05-.11,2.29-.21,3.66-.42l.51-.09a2.51,2.51,0,0,0,.48-.1.66.66,0,0,0,.49-.56,2.79,2.79,0,0,0-.09-1c-.09-.38-.18-.76-.29-1.14a5.69,5.69,0,0,0-.94-2,2.81,2.81,0,0,0-1.64-1,5.35,5.35,0,0,0-1.87,0,6.79,6.79,0,0,0-1.61.38,3.93,3.93,0,0,0-1.89,1.4c-.33.46-.45.78-.5.76a1.71,1.71,0,0,1,.28-.9,4,4,0,0,1,1.94-1.68,6.58,6.58,0,0,1,1.71-.49,5.51,5.51,0,0,1,2.07,0,3.43,3.43,0,0,1,2,1.21,6.32,6.32,0,0,1,1.06,2.22c.11.4.2.79.29,1.17a3.17,3.17,0,0,1,.09,1.28,1.31,1.31,0,0,1-.32.66,1.41,1.41,0,0,1-.59.36,3,3,0,0,1-.58.12l-.53.08c-1.4.18-2.66.24-3.71.29C581.7,261.33,580.41,261.5,580.39,261.4Z" style="fill: rgb(38, 50, 56); transform-origin: 584.814px 257.642px;" id="elitfifg96q" class="animable"></path><path d="M597.67,243.64c-.09.17-1.47-.54-3.32-.62s-3.3.46-3.38.28.29-.32.9-.56a6.43,6.43,0,0,1,5,.26C597.42,243.29,597.71,243.57,597.67,243.64Z" style="fill: rgb(255, 154, 108); transform-origin: 594.316px 243.01px;" id="eli2afndlve0p" class="animable"></path><path d="M573.94,243.68c-.08.17-1.4-.39-3.11-.38s-3,.51-3.11.34.25-.32.81-.56a6.21,6.21,0,0,1,2.31-.43,5.94,5.94,0,0,1,2.3.47C573.69,243.36,574,243.61,573.94,243.68Z" style="fill: rgb(255, 154, 108); transform-origin: 570.824px 243.181px;" id="elo6hzrqk4pcf" class="animable"></path><path d="M580.34,229.41c0-.08.21-.28.5-.66a3.35,3.35,0,0,0,.71-1.66,3.47,3.47,0,0,0-.32-1.77c-.21-.43-.4-.69-.34-.76s.38.08.72.52a2.91,2.91,0,0,1-.44,4C580.73,229.42,580.38,229.48,580.34,229.41Z" style="fill: rgb(255, 154, 108); transform-origin: 581.275px 226.99px;" id="el2tdcmjnxt2m" class="animable"></path><path d="M585.24,229.55c-.07,0-.34-.14-.64-.56a4.39,4.39,0,0,1-.7-1.9,4.29,4.29,0,0,1,.22-2c.19-.49.4-.73.48-.7s-.25,1.22-.06,2.64S585.38,229.43,585.24,229.55Z" style="fill: rgb(255, 154, 108); transform-origin: 584.562px 226.969px;" id="el66ndd9d5cl" class="animable"></path><path d="M608.77,202.44a9,9,0,0,1,.24,2.2,2.89,2.89,0,0,1-.4,1.73,2.24,2.24,0,0,1-1.55.68,8,8,0,0,1-2.13-.18.38.38,0,0,0-.15.75c1.41.26,3.37.54,4.41-.75a3.41,3.41,0,0,0,.59-2.09,10,10,0,0,0-.28-2.6c-.12-.48-.85-.22-.73.26Z" style="fill: rgb(69, 90, 100); transform-origin: 607.128px 204.883px;" id="elg7fxhstecs" class="animable"></path><path d="M611.25,202.06a9.13,9.13,0,0,0,.09,2.61,3.38,3.38,0,0,0,.87,2c1.2,1.13,3.11.58,4.47.13a.39.39,0,0,0-.25-.73,7.93,7.93,0,0,1-2.09.48,2.21,2.21,0,0,1-1.63-.46,2.88,2.88,0,0,1-.64-1.65,8.68,8.68,0,0,1-.06-2.22c0-.49-.71-.64-.76-.15Z" style="fill: rgb(69, 90, 100); transform-origin: 614.043px 204.553px;" id="elr3m57bngcqi" class="animable"></path><path d="M613,214a9,9,0,0,1-.24-2.2,2.84,2.84,0,0,1,.4-1.72,2.21,2.21,0,0,1,1.55-.69,7.62,7.62,0,0,1,2.13.19.39.39,0,0,0,.15-.76c-1.41-.26-3.37-.54-4.41.75a3.43,3.43,0,0,0-.59,2.09,9.47,9.47,0,0,0,.28,2.6c.12.48.85.22.73-.26Z" style="fill: rgb(69, 90, 100); transform-origin: 614.623px 211.557px;" id="elqcrjfz0e97l" class="animable"></path><path d="M610.51,214.38a9.13,9.13,0,0,0-.09-2.61,3.41,3.41,0,0,0-.87-2c-1.21-1.13-3.11-.58-4.48-.13a.39.39,0,0,0,.26.73,7.93,7.93,0,0,1,2.09-.48,2.18,2.18,0,0,1,1.62.46,2.75,2.75,0,0,1,.64,1.65,8.69,8.69,0,0,1,.07,2.22c0,.49.71.65.76.15Z" style="fill: rgb(69, 90, 100); transform-origin: 607.708px 211.889px;" id="elp70zl1vwpn" class="animable"></path><path d="M586.91,266.81c-.06.08-.45-.12-1.09-.35a8.14,8.14,0,0,0-2.6-.46,8,8,0,0,0-2.6.42c-.64.22-1,.42-1.09.34s.26-.41.91-.76a6.07,6.07,0,0,1,2.79-.65,6,6,0,0,1,2.77.7C586.65,266.4,587,266.75,586.91,266.81Z" style="fill: rgb(255, 154, 108); transform-origin: 583.22px 266.089px;" id="eldsbrkt65hti" class="animable"></path><path d="M433.67,426.64l-19.32,25.45S382,441,378,445.35l48,39.23,31.72-38.41Z" style="fill: rgb(69, 90, 100); transform-origin: 417.86px 455.61px;" id="eltrp5xnmr70r" class="animable"></path><path d="M430.9,462.14a2.53,2.53,0,0,1-.48,3.34,2.43,2.43,0,0,1-3.32-.44,2.66,2.66,0,0,1,.52-3.53c1.06-.65,2.93-.31,3.4.84" style="fill: rgb(224, 224, 224); transform-origin: 428.988px 463.564px;" id="eltg6qs4wlkt" class="animable"></path><path d="M426,484.58l3.15-3.82-47.26-36.29s-2.9-.82-3.89.88Z" style="fill: rgb(224, 224, 224); transform-origin: 403.575px 464.426px;" id="elsyt8o4gfff" class="animable"></path><path d="M413.78,451.21c-.19.24.9,1.3,1.43,3s.35,3.18.64,3.27,1-1.56.36-3.6S413.9,451,413.78,451.21Z" style="fill: rgb(38, 50, 56); transform-origin: 415.114px 454.331px;" id="el4xojz0h9lzd" class="animable"></path><path d="M407,449.18c-.24.18.45,1.41.44,3.05s-.64,2.88-.4,3.06,1.47-1,1.45-3.07S407.23,449,407,449.18Z" style="fill: rgb(38, 50, 56); transform-origin: 407.72px 452.235px;" id="el99s1ficj3hd" class="animable"></path><path d="M399.26,452.86c.17.23,1.45-.68,1.9-2.45s-.23-3.18-.49-3.07-.14,1.36-.53,2.81S399,452.65,399.26,452.86Z" style="fill: rgb(38, 50, 56); transform-origin: 400.258px 450.115px;" id="elncqlhhc8yq" class="animable"></path><path d="M418.82,445.9c-.07.29,1.27.85,2.52,2s1.94,2.43,2.23,2.33,0-1.75-1.52-3.11S418.86,445.62,418.82,445.9Z" style="fill: rgb(38, 50, 56); transform-origin: 421.244px 448.008px;" id="el70554qop003" class="animable"></path><path d="M422.81,440.84c-.08.09.73,1,2.42,2a14.1,14.1,0,0,0,3.14,1.28,14.75,14.75,0,0,0,2,.4,3.83,3.83,0,0,0,1.19,0,1.34,1.34,0,0,0,1.13-1.16,1.69,1.69,0,0,0-.59-1.38,4.26,4.26,0,0,0-1-.61,11,11,0,0,0-1.92-.71,11.23,11.23,0,0,0-3.4-.36c-2,.12-3.06.69-3,.8s1.18-.13,3-.05a12.62,12.62,0,0,1,3.13.54,11.83,11.83,0,0,1,1.73.7c.62.29,1.05.64,1,1,0,.12-.05.16-.27.23a3.37,3.37,0,0,1-.88,0,16.51,16.51,0,0,1-4.91-1.32C423.87,441.38,422.91,440.71,422.81,440.84Z" style="fill: rgb(38, 50, 56); transform-origin: 427.735px 442.427px;" id="ele9g0pfxucym" class="animable"></path><path d="M422.85,441.42c0,.11,1.2-.35,2.53-1.8a10.24,10.24,0,0,0,1.82-2.9,9.73,9.73,0,0,0,.58-2,2.57,2.57,0,0,0-.54-2.47,1.45,1.45,0,0,0-1.55-.15,4.23,4.23,0,0,0-1,.68,6.62,6.62,0,0,0-1.32,1.62,7,7,0,0,0-1,3.32c-.08,2,.67,3.09.76,3a23.31,23.31,0,0,1,0-3,7.16,7.16,0,0,1,1.09-2.88,6.5,6.5,0,0,1,1.18-1.35c.49-.45,1-.7,1.17-.5a1.78,1.78,0,0,1,.19,1.48,9.22,9.22,0,0,1-.47,1.79,11,11,0,0,1-1.49,2.78C423.71,440.61,422.75,441.28,422.85,441.42Z" style="fill: rgb(38, 50, 56); transform-origin: 425.129px 436.689px;" id="el3zt82jk0gz4" class="animable"></path><path d="M402.64,423.91l-20.93,25.84s-33.3-12.59-37.63-8.19l48.65,42.37L427,445Z" style="fill: rgb(69, 90, 100); transform-origin: 385.54px 453.92px;" id="elpolm2rk5trl" class="animable"></path><path d="M398.59,460.75a2.62,2.62,0,0,1-.6,3.46,2.54,2.54,0,0,1-3.44-.56,2.79,2.79,0,0,1,.66-3.67c1.12-.64,3.05-.23,3.51,1" style="fill: rgb(224, 224, 224); transform-origin: 396.563px 462.163px;" id="elp0fotamnrbe" class="animable"></path><path d="M392.73,483.93l3.41-3.86-48-39.3s-3-.95-4.07.79Z" style="fill: rgb(224, 224, 224); transform-origin: 370.105px 462.221px;" id="el7rrns6t2am" class="animable"></path><path d="M381.14,448.82c-.2.24.89,1.38,1.4,3.17s.25,3.32.55,3.42,1.15-1.59.5-3.74S381.28,448.55,381.14,448.82Z" style="fill: rgb(38, 50, 56); transform-origin: 382.472px 452.095px;" id="elay7dkusnym" class="animable"></path><path d="M374.2,446.48c-.26.19.42,1.49.35,3.19s-.76,3-.52,3.17,1.57-1,1.62-3.14S374.4,446.26,374.2,446.48Z" style="fill: rgb(38, 50, 56); transform-origin: 374.815px 449.656px;" id="elzlvc93cre49" class="animable"></path><path d="M366,450.07c.17.24,1.53-.66,2.06-2.5s-.14-3.31-.41-3.2-.19,1.4-.65,2.9S365.76,449.84,366,450.07Z" style="fill: rgb(38, 50, 56); transform-origin: 367.107px 447.236px;" id="el7hsj9nababr" class="animable"></path><path d="M386.56,443.46c-.09.3,1.29.92,2.55,2.18s1.94,2.6,2.24,2.5,0-1.82-1.47-3.28S386.61,443.17,386.56,443.46Z" style="fill: rgb(38, 50, 56); transform-origin: 389.005px 445.748px;" id="elnee6u5donk" class="animable"></path><path d="M390.88,438.32c-.09.1.72,1.06,2.45,2.11a14.62,14.62,0,0,0,3.23,1.44,15.24,15.24,0,0,0,2,.47,4,4,0,0,0,1.24.07,1.37,1.37,0,0,0,1.21-1.17,1.77,1.77,0,0,0-.57-1.45,4.56,4.56,0,0,0-1-.67,12.35,12.35,0,0,0-2-.8,11.53,11.53,0,0,0-3.53-.48c-2,.06-3.2.62-3.16.73s1.24-.09,3.14.05a13.22,13.22,0,0,1,3.24.66,13,13,0,0,1,1.77.79c.63.32,1.08.69,1,1,0,.13,0,.17-.29.22a3,3,0,0,1-.91-.05,17,17,0,0,1-5.07-1.53C392,438.92,391,438.19,390.88,438.32Z" style="fill: rgb(38, 50, 56); transform-origin: 395.882px 440.134px;" id="elivtxqumty2i" class="animable"></path><path d="M390.89,438.93c.05.11,1.27-.33,2.69-1.79a10.52,10.52,0,0,0,2.66-5,2.64,2.64,0,0,0-.48-2.58,1.51,1.51,0,0,0-1.61-.21,4.37,4.37,0,0,0-1,.67,7.29,7.29,0,0,0-1.43,1.64,7.46,7.46,0,0,0-1.15,3.43c-.15,2.09.6,3.23.69,3.17s-.25-1.23.08-3.07a7.53,7.53,0,0,1,1.22-3,6.78,6.78,0,0,1,1.27-1.36c.53-.46,1.09-.7,1.23-.48a1.83,1.83,0,0,1,.16,1.54,10.37,10.37,0,0,1-.55,1.84,11.69,11.69,0,0,1-1.64,2.85C391.82,438.11,390.79,438.78,390.89,438.93Z" style="fill: rgb(38, 50, 56); transform-origin: 393.469px 434.077px;" id="elia11dw3mvc" class="animable"></path><path d="M418.62,428.29c-1-1.75,37.84,25.14,37.84,25.14l36.64-40.68,68.45,69,5.69-29.24,10.39-63.87-58.38-58.11s-9.71-9.48-24.43-1.15C482.75,336.21,418.62,428.29,418.62,428.29Z" style="fill: rgb(38, 50, 56); transform-origin: 498.116px 403.852px;" id="elk9rcmn4wvt" class="animable"></path><path d="M385.06,434.91l69.62-89.63s18.53-17.51,37.94-12.17c11.57,3.18,77.39,67.41,77.39,67.41l20.47,8.3,31.25,53.61s-39.31,35.75-67.92,15.05c-26.83-19.41-74.06-80.87-74.06-80.87l-58.7,64.29Z" style="fill: rgb(38, 50, 56); transform-origin: 503.395px 408.013px;" id="el62jwwt89vms" class="animable"></path><path d="M524.93,450.32a1.79,1.79,0,0,1-.26-.24l-.72-.75c-.64-.65-1.54-1.66-2.71-3-2.32-2.62-5.64-6.45-9.72-11.26-8.17-9.6-19.43-23.07-32-38.31H480c-1.79,2-3.68,4.15-5.59,6.31C460,419.35,446.73,433.9,437,444.3c-4.85,5.21-8.83,9.37-11.6,12.23-1.37,1.4-2.45,2.49-3.22,3.26l-.85.84q-.28.28-.3.27a1.76,1.76,0,0,1,.26-.31l.8-.88,3.14-3.34L436.7,444c9.63-10.48,22.8-25.07,37.23-41.3l5.59-6.31.24-.26.22.27c12.57,15.25,23.77,28.76,31.85,38.44l9.58,11.37,2.63,3,.68.78A1.51,1.51,0,0,1,524.93,450.32Z" style="fill: rgb(69, 90, 100); transform-origin: 472.98px 428.515px;" id="elvgkt77hvq6l" class="animable"></path><path d="M589.45,451.4a6.77,6.77,0,0,1-1.52-.6,19.37,19.37,0,0,1-3.78-2.37A21.68,21.68,0,0,1,578,421.75a19.53,19.53,0,0,1,2.36-3.79,7.08,7.08,0,0,1,1.1-1.2,34,34,0,0,0-3.06,5.17,21.91,21.91,0,0,0,6,26.17A36.65,36.65,0,0,0,589.45,451.4Z" style="fill: rgb(69, 90, 100); transform-origin: 582.613px 434.08px;" id="el5n7m0fz8ys5" class="animable"></path><path d="M532,364.23c.11-.12,8.46,8.07,18.63,18.29s18.32,18.6,18.2,18.72-8.47-8.07-18.64-18.29S531.85,364.35,532,364.23Z" style="fill: rgb(69, 90, 100); transform-origin: 550.415px 382.735px;" id="elhg33eeix3o4" class="animable"></path><path d="M651,321.15c-11.78-32-33.63-44.27-33.63-44.27l-36.25,15.56-10.45,5a25.93,25.93,0,0,0-3.61,2.1L528.5,326.4l26.08,34.78,18.7-12.61s3.6,19.07,2.85,25.93c-1.21,11.08-8,27.1-8,27.1s27.08,28.52,31.22,43.36,22.44,21.75,31.07,21.4,2.07-6.21,2.07-6.21,16.27-20.46,20.76-47.73S659.53,344.25,651,321.15Z" style="fill: rgb(51, 188, 183); transform-origin: 592.755px 371.626px;" id="elmicwpqgu3m" class="animable"></path><path d="M611.46,448.1a2.89,2.89,0,0,1-.3-.59l-.75-1.73c-.63-1.51-1.58-3.67-2.81-6.32s-2.78-5.76-4.61-9.15-4-7.05-6.4-10.79-4.9-7.19-7.23-10.26-4.55-5.76-6.47-7.95-3.49-4-4.61-5.16L577,394.76c-.29-.32-.43-.49-.41-.51a3.33,3.33,0,0,1,.5.43l1.35,1.31c1.17,1.14,2.81,2.85,4.77,5s4.21,4.84,6.59,7.89,4.85,6.53,7.29,10.27,4.56,7.45,6.39,10.86,3.33,6.56,4.5,9.24,2.08,4.88,2.64,6.41l.65,1.78A2.37,2.37,0,0,1,611.46,448.1Z" style="fill: rgb(38, 50, 56); transform-origin: 594.024px 421.175px;" id="el3gl026m0xxl" class="animable"></path><g id="elffch4rltdgh"><g style="opacity: 0.3; transform-origin: 600.491px 422.658px;" class="animable"><path d="M620.06,438.3c-1.4-3.52-4.61-5.94-7.57-8.3-11.9-9.49-22-21-32.1-32.39l26,37.74c.82,2.56,1.68,6.61,3.16,8.85s4.16,4,6.78,3.38C620.05,446.76,621.46,441.82,620.06,438.3Z" id="eli9paknmw3z9" class="animable" style="transform-origin: 600.491px 422.658px;"></path></g></g><path d="M587.71,340a32,32,0,0,0,5.13-5.14,25.43,25.43,0,0,0,3.75-6.89,23.75,23.75,0,0,0-.94-18.7,25.45,25.45,0,0,0-4.41-6.48,32.09,32.09,0,0,0-5.62-4.6,2.11,2.11,0,0,1,.46.21c.29.17.74.38,1.26.73a22.94,22.94,0,0,1,4.16,3.4,25.09,25.09,0,0,1,4.59,6.53,23.82,23.82,0,0,1,.95,19.07,25.05,25.05,0,0,1-3.9,7,23.08,23.08,0,0,1-3.8,3.8c-.49.41-.92.66-1.19.86A2.55,2.55,0,0,1,587.71,340Z" style="fill: rgb(38, 50, 56); transform-origin: 592.105px 319.095px;" id="ele2iz40kcirt" class="animable"></path><path d="M453.8,335.84l-6.6,17.69a55.58,55.58,0,0,1-11.31-.6c-6.71-1.17-14.26-8.26-18.68-11.49a7.3,7.3,0,0,1-3.07-7.73l-4.61-3.23c-4.86-3.86,0-6.11,0-6.11L430.6,331l14,2,9.16,2.81" style="fill: rgb(255, 191, 157); transform-origin: 430.585px 338.983px;" id="ellibo5dljc8f" class="animable"></path><path d="M413,333.23c-.11.17,2.31,1.82,5.39,3.66s5.67,3.21,5.77,3-2.3-1.82-5.39-3.67S413.13,333.05,413,333.23Z" style="fill: rgb(255, 154, 108); transform-origin: 418.58px 336.562px;" id="elmcjf3essp4o" class="animable"></path><path d="M453.9,335.57c.17.66,56.79,3.47,56.79,3.47l19.25-10.72,18.46,24.61S523.71,366,519.13,367,441,353,441,353Z" style="fill: rgb(255, 191, 157); transform-origin: 494.7px 347.684px;" id="el3plfavh0rin" class="animable"></path><path d="M448.07,328.91a12.35,12.35,0,0,0-3.23-2l-7.49-3.56a2.37,2.37,0,0,0-1.43-.33c-.94.2-1.23,1.39-1.26,2.35a23.36,23.36,0,0,0,2.32,11l14.93-1.86C450.43,332.84,449.75,330.48,448.07,328.91Z" style="fill: rgb(255, 191, 157); transform-origin: 443.278px 329.69px;" id="el8q5sypi6ae" class="animable"></path></g><defs>     <filter id="active" height="200%">         <feMorphology in="SourceAlpha" result="DILATED" operator="dilate" radius="2"></feMorphology>                <feFlood flood-color="#32DFEC" flood-opacity="1" result="PINK"></feFlood>        <feComposite in="PINK" in2="DILATED" operator="in" result="OUTLINE"></feComposite>        <feMerge>            <feMergeNode in="OUTLINE"></feMergeNode>            <feMergeNode in="SourceGraphic"></feMergeNode>        </feMerge>    </filter>    <filter id="hover" height="200%">        <feMorphology in="SourceAlpha" result="DILATED" operator="dilate" radius="2"></feMorphology>                <feFlood flood-color="#ff0000" flood-opacity="0.5" result="PINK"></feFlood>        <feComposite in="PINK" in2="DILATED" operator="in" result="OUTLINE"></feComposite>        <feMerge>            <feMergeNode in="OUTLINE"></feMergeNode>            <feMergeNode in="SourceGraphic"></feMergeNode>        </feMerge>            <feColorMatrix type="matrix" values="0   0   0   0   0                0   1   0   0   0                0   0   0   0   0                0   0   0   1   0 "></feColorMatrix>    </filter></defs></svg>