<svg fill="#ffffff" xmlns="http://www.w3.org/2000/svg"  viewBox="0 0 16 16" width="16px" height="16px"><path d="M 7.5 1 C 3.917969 1 1 3.917969 1 7.5 C 1 11.082031 3.917969 14 7.5 14 C 11.082031 14 14 11.082031 14 7.5 C 14 3.917969 11.082031 1 7.5 1 Z M 7.5 2 C 8.804688 2 10 2.453125 10.941406 3.210938 C 10.464844 3.796875 9.585938 4.613281 8.113281 5.148438 C 7.3125 3.703125 6.644531 2.777344 6.179688 2.164063 C 6.601563 2.0625 7.042969 2 7.5 2 Z M 5.1875 2.515625 C 5.578125 3.019531 6.285156 3.964844 7.125 5.445313 C 4.964844 6.011719 3.015625 6.046875 2.203125 6.023438 C 2.636719 4.460938 3.738281 3.183594 5.1875 2.515625 Z M 11.660156 3.90625 C 12.492188 4.871094 13 6.125 13 7.5 C 13 7.707031 12.988281 7.90625 12.964844 8.105469 C 12.785156 8.082031 12.648438 8.058594 12.417969 8.039063 C 11.644531 7.980469 10.617188 7.980469 9.507813 8.144531 C 9.21875 7.390625 8.898438 6.695313 8.570313 6.042969 C 10.117188 5.453125 11.09375 4.582031 11.660156 3.90625 Z M 7.601563 6.351563 C 7.917969 6.96875 8.222656 7.632813 8.507813 8.34375 C 7.191406 8.734375 5.996094 9.625 5.078125 10.453125 C 4.585938 10.890625 4.183594 11.308594 3.882813 11.636719 C 2.730469 10.628906 2 9.152344 2 7.5 C 2 7.335938 2.011719 7.179688 2.023438 7.019531 C 2.734375 7.050781 5.011719 7.070313 7.601563 6.351563 Z M 10.910156 9.007813 C 11.679688 8.980469 12.285156 9.03125 12.765625 9.085938 C 12.402344 10.308594 11.625 11.347656 10.597656 12.046875 C 10.433594 11.019531 10.175781 10.03125 9.867188 9.101563 C 10.226563 9.054688 10.578125 9.023438 10.910156 9.007813 Z M 8.867188 9.285156 C 9.222656 10.3125 9.503906 11.410156 9.664063 12.558594 C 9 12.839844 8.269531 13 7.5 13 C 6.472656 13 5.519531 12.714844 4.695313 12.230469 C 4.972656 11.933594 5.316406 11.574219 5.742188 11.195313 C 6.625 10.402344 7.777344 9.59375 8.867188 9.285156 Z"/></svg>