<svg fill="#ffffff" xmlns="http://www.w3.org/2000/svg"  viewBox="0 0 16 16" width="16px" height="16px"><path d="M 9 1 C 6.246094 1 4 3.246094 4 6 C 4 6.398438 4.089844 6.757813 4.179688 7.113281 L 1 10.292969 L 1 14 L 5 14 L 5 13 L 6 13 L 6 12 L 6.707031 12 L 7.886719 10.820313 C 8.242188 10.910156 8.601563 11 9 11 C 11.753906 11 14 8.753906 14 6 C 14 3.246094 11.753906 1 9 1 Z M 9 2 C 11.214844 2 13 3.785156 13 6 C 13 8.214844 11.214844 10 9 10 C 8.613281 10 8.234375 9.925781 7.851563 9.8125 L 7.570313 9.726563 L 6.292969 11 L 5 11 L 5 12 L 4 12 L 4 13 L 2 13 L 2 10.707031 L 5.273438 7.429688 L 5.1875 7.148438 C 5.074219 6.765625 5 6.386719 5 6 C 5 3.785156 6.785156 2 9 2 Z M 10 4 C 9.449219 4 9 4.449219 9 5 C 9 5.550781 9.449219 6 10 6 C 10.550781 6 11 5.550781 11 5 C 11 4.449219 10.550781 4 10 4 Z"/></svg>