<svg fill="#ffffff" xmlns="http://www.w3.org/2000/svg"  viewBox="0 0 16 16" width="16px" height="16px"><path d="M 8 1 C 6.429688 1 5.253906 1.332031 4.421875 1.960938 C 3.585938 2.585938 3.132813 3.496094 2.960938 4.488281 C 2.835938 5.191406 2.875 5.957031 2.945313 6.730469 C 2.421875 6.964844 2 7.394531 2 8 C 2 8.410156 2.136719 8.828125 2.363281 9.210938 C 2.589844 9.59375 2.9375 10 3.5 10 C 3.632813 10 3.726563 9.976563 3.828125 9.960938 C 4.179688 11.042969 4.699219 12.035156 5.390625 12.730469 C 6.164063 13.503906 7.074219 14 8 14 C 8.925781 14 9.835938 13.5 10.609375 12.726563 C 11.304688 12.035156 11.816406 11.042969 12.171875 9.960938 C 12.273438 9.976563 12.367188 10 12.5 10 C 13.0625 10 13.410156 9.59375 13.636719 9.210938 C 13.863281 8.828125 14 8.410156 14 8 C 14 7.378906 13.5625 6.9375 13.019531 6.710938 C 13.089844 5.757813 13.078125 4.855469 12.75 4.109375 C 12.40625 3.335938 11.75 2.753906 10.875 2.398438 C 10.738281 1.988281 10.457031 1.636719 10.042969 1.421875 C 9.507813 1.144531 8.8125 1 8 1 Z M 8 2 C 8.6875 2 9.242188 2.136719 9.582031 2.3125 C 9.921875 2.484375 10 2.648438 10 2.75 C 10 2.75 10.003906 2.828125 9.9375 3.023438 C 9.875 3.214844 9.742188 3.488281 9.460938 3.773438 C 8.890625 4.339844 7.667969 5 5 5 L 5 6 C 7.832031 6 9.359375 5.285156 10.167969 4.476563 C 10.53125 4.113281 10.726563 3.742188 10.84375 3.4375 C 11.320313 3.695313 11.628906 4.050781 11.832031 4.515625 C 12.101563 5.121094 12.175781 5.953125 12.0625 6.953125 L 12 7.476563 L 12.53125 7.511719 C 12.800781 7.527344 13 7.730469 13 8 C 13 8.140625 12.914063 8.472656 12.777344 8.703125 C 12.640625 8.933594 12.488281 9 12.5 9 C 12.53125 9 12.355469 8.984375 12.234375 8.960938 C 12.113281 8.9375 12.003906 8.917969 12.003906 8.917969 L 11.570313 8.828125 L 11.429688 9.25 C 11.429688 9.25 11.410156 9.300781 11.390625 9.371094 C 11.105469 10.449219 10.542969 11.378906 9.902344 12.019531 C 9.261719 12.660156 8.546875 13 8 13 C 7.453125 13 6.738281 12.664063 6.09375 12.019531 C 5.453125 11.378906 4.894531 10.453125 4.609375 9.375 L 4.609375 9.371094 C 4.585938 9.289063 4.566406 9.242188 4.566406 9.242188 L 4.421875 8.828125 L 3.992188 8.917969 C 3.992188 8.917969 3.886719 8.9375 3.765625 8.960938 C 3.644531 8.984375 3.46875 9 3.5 9 C 3.511719 9 3.359375 8.933594 3.222656 8.703125 C 3.085938 8.472656 3 8.140625 3 8 C 3 7.730469 3.199219 7.53125 3.46875 7.511719 L 3.992188 7.476563 L 3.9375 6.953125 C 3.839844 6.113281 3.828125 5.328125 3.945313 4.664063 C 4.089844 3.84375 4.414063 3.214844 5.023438 2.757813 C 5.628906 2.300781 6.570313 2 8 2 Z M 6.5 7 C 6.222656 7 6 7.222656 6 7.5 C 6 7.777344 6.222656 8 6.5 8 C 6.777344 8 7 7.777344 7 7.5 C 7 7.222656 6.777344 7 6.5 7 Z M 9.5 7 C 9.222656 7 9 7.222656 9 7.5 C 9 7.777344 9.222656 8 9.5 8 C 9.777344 8 10 7.777344 10 7.5 C 10 7.222656 9.777344 7 9.5 7 Z"/></svg>